<?xml version="1.0" encoding="UTF-8" standalone="no"?>
<!DOCTYPE svg PUBLIC "-//W3C//DTD SVG 1.1//EN" "http://www.w3.org/Graphics/SVG/1.1/DTD/svg11.dtd">
<svg width="100%" height="100%" viewBox="0 0 1081 749" version="1.1" xmlns="http://www.w3.org/2000/svg" xmlns:xlink="http://www.w3.org/1999/xlink" xml:space="preserve" xmlns:serif="http://www.serif.com/" style="fill-rule:evenodd;clip-rule:evenodd;stroke-linejoin:round;stroke-miterlimit:2;">
    <g transform="matrix(1,0,0,1,-59.9757,-75.9989)">
        <path d="M832.208,587.468C832.208,655.161 791.965,678.797 742.324,678.797C692.682,678.797 652.44,655.161 652.44,587.468C652.44,519.775 742.324,433.659 742.324,433.659C742.324,433.659 832.208,519.775 832.208,587.468Z" style="fill:rgb(255,90,118);fill-rule:nonzero;"/>
    </g>
    <path d="M679.994,535.79L718.305,465.702L680.138,526.903L680.552,501.43L706.956,450.722L680.662,494.688L681.406,448.873L709.68,408.504L681.523,441.669L681.988,357.66L679.191,464.109L650.56,420.284L678.845,473.092L676.166,524.259L676.087,522.901L642.948,476.597L675.986,527.699L675.651,534.098L675.591,534.195L675.619,534.72L668.823,603L677.902,603L678.992,597.484L711.949,546.507L679.074,592.443L679.994,535.79Z" style="fill:rgb(63,61,86);fill-rule:nonzero;"/>
    <g transform="matrix(1,0,0,1,-59.9757,-75.9989)">
        <path d="M1140.02,369.813C1140.02,499.123 1063.15,544.274 968.324,544.274C873.496,544.274 796.623,499.123 796.623,369.813C796.623,240.502 968.324,75.999 968.324,75.999C968.324,75.999 1140.02,240.502 1140.02,369.813Z" style="fill:rgb(242,242,242);fill-rule:nonzero;"/>
    </g>
    <path d="M902.093,448.494L903.851,340.273L977.035,206.388L904.127,323.296L904.918,274.635L955.355,177.771L905.127,261.758L905.127,261.759L906.549,174.24L960.558,97.124L906.772,160.478L907.661,0L902.078,212.444L902.537,203.68L847.625,119.628L901.656,220.503L896.54,318.246L896.387,315.652L833.084,227.2L896.196,324.817L895.556,337.041L895.441,337.225L895.494,338.228L882.513,586.21L899.856,586.21L901.937,458.123L964.894,360.745L902.093,448.494Z" style="fill:rgb(63,61,86);fill-rule:nonzero;"/>
    <g transform="matrix(1,0,0,1,-59.9757,-75.9989)">
        <path d="M1132.98,640.557C1132.98,679.153 882.607,824.001 589.924,824.001C297.242,824.001 59.976,749.036 59.976,710.441C59.976,671.845 291.418,717.72 584.1,717.72C876.783,717.72 1132.98,601.962 1132.98,640.557Z" style="fill:rgb(63,61,86);fill-rule:nonzero;"/>
    </g>
    <g transform="matrix(1,0,0,1,-59.9757,-75.9989)">
        <path d="M1132.98,640.557C1132.98,679.153 882.607,824.001 589.924,824.001C297.242,824.001 59.976,749.036 59.976,710.441C59.976,671.845 291.418,717.72 584.1,717.72C876.783,717.72 1132.98,601.962 1132.98,640.557Z" style="fill-opacity:0.1;fill-rule:nonzero;"/>
    </g>
    <g transform="matrix(1,0,0,1,-59.9757,-75.9989)">
        <path d="M1132.98,640.557C1132.98,679.153 882.607,780.324 589.924,780.324C297.242,780.324 59.976,749.036 59.976,710.441C59.976,671.845 291.418,674.043 584.1,674.043C876.783,674.043 1132.98,601.962 1132.98,640.557Z" style="fill:rgb(63,61,86);fill-rule:nonzero;"/>
    </g>
    <ellipse cx="535.878" cy="641.774" rx="225.044" ry="17.407" style="fill-opacity:0.1;"/>
    <g transform="matrix(1,0,0,1,-59.9757,-75.9989)">
        <path d="M417.574,368.965C417.574,368.965 483.457,370.185 471.256,381.775C459.056,393.366 413.303,381.775 413.303,381.775L417.574,368.965Z" style="fill:rgb(160,97,106);fill-rule:nonzero;"/>
    </g>
    <g transform="matrix(1,0,0,1,-59.9757,-75.9989)">
        <path d="M280.304,228.182C280.304,228.182 306.904,223.432 316.153,244.905C325.402,266.379 344.397,327.621 344.397,327.621C344.397,327.621 395.23,361.269 404.476,360.164C413.722,359.058 429.528,361.314 426.629,371.401C423.73,381.488 425.017,392.926 418.342,394.328C411.667,395.729 401.051,382.348 392.927,388.793C384.802,395.239 312.397,371.697 307.748,366.819C303.1,361.941 264.47,256.318 264.47,256.318C264.47,256.318 266.015,227.838 280.304,228.182Z" style="fill:rgb(255,90,118);fill-rule:nonzero;"/>
    </g>
    <path d="M277.379,605.607L280.429,631.228L254.808,637.939L240.167,631.228L240.167,608.657L277.379,605.607Z" style="fill:rgb(160,97,106);fill-rule:nonzero;"/>
    <path d="M208.445,622.078L211.495,647.699L185.874,654.41L171.233,647.699L171.233,625.128L208.445,622.078Z" style="fill:rgb(160,97,106);fill-rule:nonzero;"/>
    <g transform="matrix(1,0,0,1,-59.9757,-75.9989)">
        <path d="M339.795,401.601L351.385,443.693L368.466,529.098C368.466,529.098 373.346,549.839 363.586,574.85C353.825,599.862 336.134,681.606 339.795,686.486C343.455,691.366 298.312,695.027 298.922,690.146C299.532,685.266 305.633,618.163 305.633,618.163C305.633,618.163 314.173,558.99 318.443,551.669C322.714,544.349 298.922,526.048 298.922,526.048C298.922,526.048 292.822,596.201 283.672,602.302C274.521,608.402 275.741,702.957 271.471,704.177C267.201,705.397 236.089,710.277 232.429,704.177C228.769,698.077 232.429,596.201 232.429,596.201C232.429,596.201 253.17,518.727 248.9,507.747C244.63,496.766 247.07,449.794 247.07,449.794C247.07,449.794 231.209,413.802 239.749,394.891L339.795,401.601Z" style="fill:rgb(47,46,65);fill-rule:nonzero;"/>
    </g>
    <g transform="matrix(1,0,0,1,-59.9757,-75.9989)">
        <path d="M337.965,167.349C337.965,167.349 312.343,199.071 313.563,213.101C314.783,227.132 273.301,187.48 273.301,187.48C273.301,187.48 303.193,147.218 303.193,138.677C303.193,130.137 337.965,167.349 337.965,167.349Z" style="fill:rgb(160,97,106);fill-rule:nonzero;"/>
    </g>
    <circle cx="277.684" cy="62.984" r="40.262" style="fill:rgb(160,97,106);"/>
    <g transform="matrix(1,0,0,1,-59.9757,-75.9989)">
        <path d="M236.193,378.78C234.369,385.576 232.106,393.28 232.429,399.771C232.636,403.974 243.794,406.732 259.222,408.537C273.527,410.215 291.505,411.069 307.847,411.508C325.007,411.972 340.35,411.972 347.725,411.972C369.686,411.972 351.995,397.941 343.455,391.231C334.914,384.52 336.744,289.355 337.354,277.155C337.965,264.954 331.864,229.572 331.864,222.862C331.864,216.152 317.51,198.638 317.51,198.638C317.51,198.638 314.173,208.221 300.753,195.411C287.332,182.6 269.641,178.94 269.641,178.94C256.22,183.82 233.649,237.503 232.429,246.653C231.935,250.368 232.344,269.395 233.173,291.118C234.375,322.871 236.474,360.406 237.919,364.389C239.06,367.531 237.797,372.802 236.193,378.78Z" style="fill:rgb(255,90,118);fill-rule:nonzero;"/>
    </g>
    <path d="M241.387,338.413L245.657,353.664L229.186,370.745L223.696,346.953L241.387,338.413Z" style="fill:rgb(160,97,106);fill-rule:nonzero;"/>
    <g transform="matrix(1,0,0,1,-59.9757,-75.9989)">
        <path d="M306.853,700.517C306.853,700.517 319.664,715.158 329.424,705.397C339.185,695.637 338.575,689.536 340.405,689.536C342.235,689.536 369.686,713.938 369.686,713.938C369.686,713.938 416.659,724.918 391.037,732.849C365.416,740.779 292.822,735.289 292.822,732.849C292.822,730.408 290.992,698.077 297.702,698.077L306.853,700.517Z" style="fill:rgb(47,46,65);fill-rule:nonzero;"/>
    </g>
    <g transform="matrix(1,0,0,1,-59.9757,-75.9989)">
        <path d="M237.919,716.988C237.919,716.988 250.73,731.629 260.49,721.868C270.251,712.108 269.641,706.007 271.471,706.007C273.301,706.007 300.753,730.408 300.753,730.408C300.753,730.408 347.725,741.389 322.104,749.319C296.482,757.25 223.889,751.76 223.889,749.319C223.889,746.879 222.058,714.548 228.769,714.548L237.919,716.988Z" style="fill:rgb(47,46,65);fill-rule:nonzero;"/>
    </g>
    <g transform="matrix(1,0,0,1,-59.9757,-75.9989)">
        <path d="M292.456,171.122C291.156,171.962 289.462,172.814 288.16,171.976C283.318,159.9 279.699,147.37 277.357,134.573C276.535,130.077 275.964,125.08 278.461,121.253C279.446,119.744 280.864,118.509 281.586,116.858C282.678,114.357 281.959,111.461 282.322,108.756C283.082,103.089 288.44,99.136 293.827,97.219C299.214,95.302 305.065,94.707 310.2,92.192C315.076,89.803 318.982,85.842 323.503,82.835C328.024,79.829 333.816,77.774 338.851,79.805C343.305,81.602 346.08,86.143 350.29,88.454C353.147,90.023 356.463,90.46 359.652,91.133C368.516,93.014 376.838,96.88 383.992,102.441C385.732,103.683 387.233,105.23 388.421,107.008C393.824,115.903 384.151,127.996 388.419,137.489L379.192,130.208C376.728,128.053 373.949,126.287 370.952,124.971C367.895,123.814 364.276,123.674 361.5,125.398C357.604,127.818 356.547,132.874 355.186,137.254C353.825,141.634 350.816,146.491 346.231,146.378C339.995,146.226 337.814,137.524 332.219,134.769C328.571,132.973 323.979,134.155 320.869,136.775C317.759,139.394 315.893,143.195 314.525,147.023C313.669,149.416 312.867,152.113 311.348,154.187C309.673,156.474 307.53,156.658 305.74,158.366C301.082,162.812 298.218,167.399 292.456,171.122Z" style="fill:rgb(47,46,65);fill-rule:nonzero;"/>
    </g>
    <g transform="matrix(1,0,0,1,-59.9757,-75.9989)">
        <path d="M236.193,378.78C243.776,389.779 252.322,401.125 259.222,408.537C273.527,410.215 291.505,411.069 307.847,411.508C304.928,407.55 301.277,404.187 297.092,401.601C289.162,396.721 270.251,338.768 270.251,338.768C270.251,338.768 293.432,278.985 299.533,256.414C305.633,233.843 281.842,221.032 281.842,221.032C270.861,211.881 251.95,233.232 251.95,233.232C251.95,233.232 242.299,262.343 233.173,291.118C234.375,322.871 236.473,360.406 237.919,364.389C239.06,367.531 237.797,372.802 236.193,378.78Z" style="fill-opacity:0.1;fill-rule:nonzero;"/>
    </g>
    <g transform="matrix(1,0,0,1,-59.9757,-75.9989)">
        <path d="M280.011,216.152C280.011,216.152 303.803,228.962 297.702,251.533C291.602,274.105 268.421,333.888 268.421,333.888C268.421,333.888 287.332,391.841 295.262,396.721C303.193,401.601 314.173,413.192 305.633,419.292C297.092,425.393 290.992,435.153 284.892,432.103C278.791,429.053 278.791,411.972 268.421,411.972C258.05,411.972 215.958,348.529 215.348,341.818C214.738,335.108 250.12,228.352 250.12,228.352C250.12,228.352 269.031,207.001 280.011,216.152Z" style="fill:rgb(255,90,118);fill-rule:nonzero;"/>
    </g>
    <g transform="matrix(1,0,0,1,-59.9757,-75.9989)">
        <path d="M774.722,382.891L767.859,376.028C759.579,367.748 745.952,367.748 737.673,376.028L604.557,509.143L471.442,376.028C463.162,367.748 449.536,367.748 441.256,376.028L434.393,382.891C430.392,386.892 428.141,392.325 428.141,397.984C428.141,403.643 430.392,409.076 434.393,413.077L567.508,546.192L434.393,679.308C430.392,683.309 428.141,688.742 428.141,694.401C428.141,700.059 430.392,705.492 434.393,709.494L441.256,716.356C449.536,724.636 463.162,724.636 471.442,716.356L604.557,583.241L737.673,716.356C745.952,724.636 759.579,724.636 767.859,716.356L774.722,709.494C783.001,701.214 783.001,687.587 774.722,679.307L641.606,546.192L774.722,413.077C783.001,404.797 783.001,391.171 774.722,382.891Z" style="fill:rgb(209,0,33);fill-rule:nonzero;"/>
    </g>
    <g transform="matrix(1,0,0,1,-59.9757,-75.9989)">
        <path d="M429.643,686.545L558.805,557.382L557.562,556.139L434.393,679.307C432.33,681.368 430.713,683.832 429.643,686.545Z" style="fill-opacity:0.1;fill-rule:nonzero;"/>
    </g>
    <g transform="matrix(1,0,0,1,-59.9757,-75.9989)">
        <path d="M432.553,387.218C440.832,378.938 454.459,378.938 462.739,387.218L595.854,520.333L728.969,387.218C737.249,378.938 750.876,378.938 759.155,387.218L766.018,394.081C772.024,400.088 773.896,409.132 770.769,417.03L774.722,413.077C778.723,409.076 780.973,403.643 780.973,397.984C780.973,392.325 778.723,386.892 774.722,382.891L767.859,376.028C759.579,367.748 745.952,367.748 737.673,376.028L604.557,509.143L471.442,376.028C463.162,367.748 449.536,367.748 441.256,376.028L434.393,382.891C432.33,384.952 430.713,387.415 429.643,390.128L432.553,387.218Z" style="fill-opacity:0.1;fill-rule:nonzero;"/>
    </g>
    <g transform="matrix(1,0,0,1,-59.9757,-75.9989)">
        <path d="M642.85,547.436L632.903,557.382L766.018,690.498C772.024,696.504 773.896,705.549 770.769,713.447L774.722,709.494C778.723,705.492 780.973,700.059 780.973,694.401C780.973,688.742 778.723,683.309 774.722,679.307L642.85,547.436Z" style="fill-opacity:0.1;fill-rule:nonzero;"/>
    </g>
    <g transform="matrix(1,0,0,1,-59.9757,-75.9989)">
        <path d="M214.976,636.191C214.976,692.413 181.553,712.043 140.324,712.043C99.094,712.043 65.672,692.413 65.672,636.191C65.672,579.97 140.324,508.447 140.324,508.447C140.324,508.447 214.976,579.97 214.976,636.191Z" style="fill:rgb(255,90,118);fill-rule:nonzero;"/>
    </g>
    <path d="M78.393,580.392L110.212,522.181L78.513,573.011L78.857,551.854L100.786,509.739L78.948,546.255L79.566,508.204L103.048,474.675L79.663,502.221L80.049,432.448L77.726,520.858L53.947,484.46L77.438,528.318L75.214,570.815L75.148,569.687L47.625,531.23L75.064,573.672L74.786,578.987L74.736,579.067L74.759,579.503L69.115,636.212L76.656,636.212L77.561,631.631L104.933,589.293L77.629,627.444L78.393,580.392Z" style="fill:rgb(63,61,86);fill-rule:nonzero;"/>
</svg>
