<?xml version="1.0" encoding="UTF-8" standalone="no"?>
<!DOCTYPE svg PUBLIC "-//W3C//DTD SVG 1.1//EN" "http://www.w3.org/Graphics/SVG/1.1/DTD/svg11.dtd">
<svg width="100%" height="100%" viewBox="0 0 512 512" version="1.1" xmlns="http://www.w3.org/2000/svg" xmlns:xlink="http://www.w3.org/1999/xlink" xml:space="preserve" xmlns:serif="http://www.serif.com/" style="fill-rule:evenodd;clip-rule:evenodd;stroke-linejoin:round;stroke-miterlimit:2;">
    <g transform="matrix(1,0,0,1,16.8052,24.4919)">
        <path d="M379.379,280.966L353.068,254.655C351.537,253.125 349.418,252.338 347.257,252.471C345.096,252.614 343.102,253.683 341.785,255.404C338.204,260.085 334.293,264.555 330.16,268.688C326.019,272.829 321.55,276.74 316.877,280.313C315.157,281.629 314.086,283.624 313.943,285.785C313.799,287.946 314.595,290.065 316.127,291.598L342.438,317.91C343.847,319.319 345.759,320.11 347.752,320.11C349.745,320.11 351.657,319.318 353.066,317.909L379.379,291.595C382.314,288.659 382.314,283.902 379.379,280.966Z" style="fill:rgb(209,0,33);fill-rule:nonzero;"/>
    </g>
    <g transform="matrix(1,0,0,1,16.8052,24.4919)">
        <path d="M327.068,271.676C323.822,274.717 320.408,277.612 316.875,280.312C315.155,281.628 314.084,283.623 313.941,285.784C313.797,287.945 314.593,290.064 316.125,291.597L342.436,317.909C343.845,319.318 345.757,320.109 347.75,320.109C349.743,320.109 351.655,319.317 353.064,317.908L363.534,307.438L327.068,271.676Z" style="fill:rgb(209,0,33);fill-rule:nonzero;"/>
    </g>
    <g>
        <g transform="matrix(1,0,0,1,16.8052,24.4919)">
            <path d="M330.619,399.236L143.111,399.236C138.961,399.236 135.596,395.872 135.596,391.721C135.596,387.57 138.961,384.206 143.111,384.206L330.619,384.206C334.769,384.206 338.134,387.57 338.134,391.721C338.134,395.872 334.77,399.236 330.619,399.236Z" style="fill:white;fill-rule:nonzero;"/>
        </g>
        <g transform="matrix(1,0,0,1,16.8052,24.4919)">
            <path d="M330.619,363.864L143.111,363.864C138.961,363.864 135.596,360.5 135.596,356.349C135.596,352.198 138.961,348.834 143.111,348.834L330.619,348.834C334.769,348.834 338.134,352.198 338.134,356.349C338.134,360.499 334.77,363.864 330.619,363.864Z" style="fill:white;fill-rule:nonzero;"/>
        </g>
        <g transform="matrix(1,0,0,1,16.8052,24.4919)">
            <path d="M272.393,434.609L143.11,434.609C138.96,434.609 135.595,431.245 135.595,427.094C135.595,422.943 138.96,419.579 143.11,419.579L272.392,419.579C276.542,419.579 279.907,422.943 279.907,427.094C279.908,431.245 276.543,434.609 272.393,434.609Z" style="fill:white;fill-rule:nonzero;"/>
        </g>
    </g>
    <g transform="matrix(1,0,0,1,16.8052,24.4919)">
        <path d="M455.854,344.109L386.045,274.3C383.11,271.366 378.351,271.366 375.418,274.3L335.773,313.945C332.838,316.881 332.838,321.639 335.773,324.573L405.582,394.382C412.512,401.312 421.615,404.777 430.719,404.777C439.823,404.777 448.926,401.312 455.856,394.382C469.715,380.523 469.715,357.97 455.854,344.109Z" style="fill:rgb(53,53,53);fill-rule:nonzero;"/>
    </g>
    <g transform="matrix(1,0,0,1,16.8052,24.4919)">
        <path d="M465.423,376.848C462.597,377.997 459.556,379.3 456.273,380.774C445.955,385.426 433.401,383.519 424.923,375.041L349.597,300.121L335.772,313.946C332.837,316.882 332.837,321.64 335.772,324.574L405.581,394.383C412.511,401.313 421.614,404.778 430.718,404.778C439.822,404.778 448.925,401.313 455.855,394.383C460.843,389.395 464.025,383.278 465.423,376.848Z" style="fill:rgb(38,38,38);fill-rule:nonzero;"/>
    </g>
    <g transform="matrix(1,0,0,1,16.8052,24.4919)">
        <path d="M340.823,71.399C283.5,14.076 190.229,14.077 132.907,71.399C105.139,99.167 89.846,136.088 89.846,175.358C89.846,214.627 105.139,251.548 132.907,279.317C161.569,307.979 199.217,322.309 236.866,322.309C274.514,322.309 312.163,307.978 340.824,279.317C368.592,251.548 383.885,214.628 383.885,175.358C383.884,136.088 368.592,99.167 340.823,71.399Z" style="fill:rgb(209,0,33);fill-rule:nonzero;"/>
    </g>
    <g transform="matrix(1,0,0,1,16.8052,24.4919)">
        <path d="M340.823,71.399C309.277,39.853 266.846,25.676 225.508,28.85C259.286,31.444 292.333,45.622 318.11,71.399C345.878,99.167 361.171,136.088 361.171,175.358C361.171,214.627 345.878,251.548 318.11,279.317C292.333,305.094 259.286,319.273 225.508,321.867C229.288,322.158 233.075,322.31 236.864,322.31C274.512,322.31 312.161,307.979 340.822,279.318C368.59,251.549 383.883,214.629 383.883,175.359C383.884,136.088 368.592,99.167 340.823,71.399Z" style="fill:rgb(209,16,33);fill-rule:nonzero;"/>
    </g>
    <g transform="matrix(1,0,0,1,16.8052,24.4919)">
        <path d="M236.656,58.698C172.711,58.698 120.687,110.721 120.687,174.666C120.687,238.611 172.71,290.635 236.656,290.635C300.602,290.635 352.625,238.611 352.625,174.666C352.625,110.721 300.602,58.698 236.656,58.698Z" style="fill:rgb(239,231,228);fill-rule:nonzero;"/>
    </g>
    <g transform="matrix(1,0,0,1,16.8052,24.4919)">
        <path d="M236.656,58.698C231.994,58.698 227.397,58.983 222.877,59.52C280.351,66.356 325.067,115.384 325.067,174.666C325.067,233.95 280.351,282.978 222.877,289.813C227.397,290.35 231.993,290.635 236.656,290.635C300.602,290.635 352.625,238.611 352.625,174.666C352.625,110.721 300.602,58.698 236.656,58.698Z" style="fill:rgb(216,209,208);fill-rule:nonzero;"/>
    </g>
    <g transform="matrix(1,0,0,1,16.8052,24.4919)">
        <path d="M314.477,254.716C309.542,238.879 299.085,224.462 285.031,214.118C270.939,203.746 253.796,197.906 236.759,197.675C236.691,197.673 236.622,197.673 236.554,197.675C219.518,197.906 202.374,203.747 188.282,214.118C174.229,224.461 163.771,238.879 158.836,254.716C157.943,257.578 158.838,260.698 161.113,262.652C182.113,280.698 208.941,290.636 236.658,290.636C264.374,290.636 291.203,280.698 312.203,262.652C314.475,260.698 315.369,257.579 314.477,254.716Z" style="fill:rgb(104,185,216);fill-rule:nonzero;"/>
    </g>
    <g transform="matrix(1,0,0,1,16.8052,24.4919)">
        <path d="M285.03,214.118C270.938,203.746 253.795,197.906 236.758,197.675C236.69,197.673 236.621,197.673 236.553,197.675C227.495,197.798 218.41,199.522 209.766,202.654C214.765,203.821 220.352,204.954 226.636,206.034C254.681,210.317 279.036,230.55 287.263,256.951C288.315,260.221 290.352,270.396 291.555,276.813C298.883,272.875 305.814,268.14 312.202,262.651C314.477,260.697 315.371,257.577 314.479,254.715C309.543,238.88 299.084,224.462 285.03,214.118Z" style="fill:rgb(54,149,178);fill-rule:nonzero;"/>
    </g>
    <g transform="matrix(1,0,0,1,16.8052,24.4919)">
        <path d="M262.228,266.873L252.429,224.339C251.643,220.928 248.606,218.511 245.105,218.511L228.204,218.511C224.703,218.511 221.667,220.928 220.88,224.339L211.081,266.873C210.473,269.512 211.333,272.275 213.331,274.104L229.207,288.635C230.553,289.867 232.299,290.567 234.123,290.605C234.965,290.623 235.808,290.636 236.654,290.636C237.501,290.636 238.343,290.622 239.185,290.605C241.008,290.567 242.755,289.868 244.101,288.635L259.977,274.104C261.977,272.275 262.836,269.513 262.228,266.873Z" style="fill:rgb(242,70,79);fill-rule:nonzero;"/>
    </g>
    <g>
        <g transform="matrix(1,0,0,1,16.8052,24.4919)">
            <path d="M252.933,227.195L265.038,203.195C255.952,199.709 246.337,197.805 236.757,197.675C236.689,197.673 236.62,197.673 236.552,197.675C226.91,197.806 217.234,199.737 208.096,203.266L220.36,227.195L252.933,227.195Z" style="fill:rgb(211,51,60);fill-rule:nonzero;"/>
        </g>
        <g transform="matrix(1,0,0,1,16.8052,24.4919)">
            <path d="M262.228,266.873L252.429,224.339C251.643,220.928 248.606,218.511 245.105,218.511L242.15,218.511L238.008,226.986L247.197,266.873C247.805,269.512 246.945,272.275 244.947,274.104L229.139,288.572L229.207,288.635C230.553,289.867 232.299,290.567 234.123,290.605C234.965,290.623 235.808,290.636 236.654,290.636C237.501,290.636 238.343,290.622 239.185,290.605C241.008,290.567 242.755,289.868 244.101,288.635L259.977,274.104C261.977,272.275 262.836,269.513 262.228,266.873Z" style="fill:rgb(211,51,60);fill-rule:nonzero;"/>
        </g>
    </g>
    <g transform="matrix(1,0,0,1,16.8052,24.4919)">
        <path d="M251.551,199.279L238.01,226.986L238.058,227.196L252.934,227.196L265.039,203.196C260.646,201.51 256.127,200.203 251.551,199.279Z" style="fill:rgb(175,39,59);fill-rule:nonzero;"/>
    </g>
    <g transform="matrix(1,0,0,1,16.8052,24.4919)">
        <path d="M236.656,97.096C213.112,97.096 193.96,116.25 193.96,139.792L193.96,170.067C193.96,193.609 213.114,212.763 236.656,212.763C260.198,212.763 279.352,193.609 279.352,170.067L279.352,139.793C279.352,116.251 260.198,97.096 236.656,97.096Z" style="fill:rgb(255,200,159);fill-rule:nonzero;"/>
    </g>
    <g transform="matrix(1,0,0,1,16.8052,24.4919)">
        <path d="M236.656,97.096C231.835,97.096 227.204,97.911 222.877,99.391C239.677,105.137 251.794,121.072 251.794,139.795L251.794,170.069C251.794,188.791 239.677,204.725 222.877,210.472C227.203,211.952 231.834,212.767 236.656,212.767C260.2,212.767 279.352,193.613 279.352,170.071L279.352,139.797C279.352,116.251 260.198,97.096 236.656,97.096Z" style="fill:rgb(247,176,129);fill-rule:nonzero;"/>
    </g>
    <g transform="matrix(1,0,0,1,16.8052,24.4919)">
        <path d="M279.352,154.887L279.352,139.794C279.352,116.25 260.198,97.097 236.656,97.097C213.114,97.097 193.96,116.251 193.96,139.793L193.96,154.891L201.474,154.891C232.2,154.891 243.394,134.143 243.394,134.143C243.394,134.143 251.219,154.79 271.782,154.886L279.352,154.886L279.352,154.887Z" style="fill-rule:nonzero;"/>
    </g>
</svg>
