<?xml version="1.0" encoding="UTF-8" standalone="no"?>
<!DOCTYPE svg PUBLIC "-//W3C//DTD SVG 1.1//EN" "http://www.w3.org/Graphics/SVG/1.1/DTD/svg11.dtd">
<svg width="100%" height="100%" viewBox="0 0 1114 845" version="1.1" xmlns="http://www.w3.org/2000/svg" xmlns:xlink="http://www.w3.org/1999/xlink" xml:space="preserve" xmlns:serif="http://www.serif.com/" style="fill-rule:evenodd;clip-rule:evenodd;stroke-linejoin:round;stroke-miterlimit:2;">
    <rect x="209.28" y="48.95" width="610" height="736" style="fill:rgb(33,34,43);"/>
    <rect x="446.28" y="131.95" width="246" height="12" style="fill:white;"/>
    <rect x="446.28" y="169.95" width="246" height="12" style="fill:white;"/>
    <rect x="505.28" y="207.95" width="128" height="12" style="fill:rgb(209,0,33);"/>
    <rect x="446.28" y="372.95" width="246" height="12" style="fill:white;fill-opacity:0.5;"/>
    <rect x="446.28" y="410.95" width="246" height="12" style="fill:white;fill-opacity:0.5;"/>
    <rect x="505.28" y="448.95" width="128" height="12" style="fill:rgb(209,0,33);fill-opacity:0.5;"/>
    <rect x="446.28" y="613.95" width="246" height="12" style="fill:white;fill-opacity:0.5;"/>
    <rect x="446.28" y="651.95" width="246" height="12" style="fill:white;fill-opacity:0.5;"/>
    <rect x="505.28" y="689.95" width="128" height="12" style="fill:rgb(209,0,33);fill-opacity:0.5;"/>
    <g opacity="0.5">
        <g transform="matrix(1,0,0,1,-43.2,-23.86)">
            <path d="M421.48,440.8C421.508,457.032 415.695,472.744 405.11,485.05C404.59,485.66 404.05,486.26 403.5,486.85C403.227,487.157 402.947,487.457 402.66,487.75C400.405,490.122 397.978,492.324 395.4,494.34L395.22,494.47C391.236,497.593 386.908,500.25 382.32,502.39C379.965,503.496 377.548,504.465 375.08,505.29L374.17,505.58C373.61,505.77 373.03,505.94 372.46,506.1L372.23,506.17C359.96,509.676 346.95,509.676 334.68,506.17L334.58,506.17C333.58,505.88 332.58,505.58 331.66,505.25L330.81,504.95C327.573,503.81 324.43,502.419 321.41,500.79L321.22,500.69C316.419,498.091 311.947,494.925 307.9,491.26L307.57,490.95C305.504,489.08 303.563,487.075 301.76,484.95C301.52,484.68 301.29,484.4 301.06,484.12C300.62,483.6 300.2,483.06 299.78,482.52C290.513,470.591 285.48,455.908 285.48,440.803C285.48,403.499 316.176,372.803 353.48,372.803C390.783,372.803 421.478,403.497 421.48,440.8Z" style="fill:rgb(192,188,207);fill-rule:nonzero;"/>
        </g>
        <rect x="284.28" y="397.95" width="46" height="31" style="fill:rgb(73,53,69);"/>
        <g transform="matrix(1,0,0,1,-43.2,-23.86)">
            <path d="M381.12,456L361.87,483.12L341.75,481.37C341.75,481.37 315.5,483.11 333,463C341.41,453.33 344.16,445.27 344.75,439.52C345.39,433.3 343.5,429.76 343.5,429.76L365.37,427.14C364.383,430.087 364.258,433.255 365.01,436.27C367.75,447.63 381.12,456 381.12,456Z" style="fill:rgb(199,116,133);fill-rule:nonzero;"/>
        </g>
        <g transform="matrix(1,0,0,1,-43.2,-23.86)">
            <path d="M365,436.24C359.213,440.622 351.609,441.845 344.74,439.5C345.38,433.28 343.49,429.74 343.49,429.74L365.36,427.12C364.375,430.064 364.25,433.228 365,436.24Z" style="fill-opacity:0.1;fill-rule:nonzero;"/>
        </g>
        <circle cx="308.61" cy="394.07" r="21.87" style="fill:rgb(199,116,133);"/>
        <g transform="matrix(1,0,0,1,-43.2,-23.86)">
            <path d="M380.32,457.12L379.81,455.12L379.37,453.36L378.72,450.76L378.6,450.28L378.5,449.88C378.5,449.88 379.02,448.31 375.59,448.82L374.95,448.93C374.41,449.04 373.78,449.19 373.06,449.39L372.41,449.59L371.55,449.86C368.827,450.746 366.344,452.245 364.29,454.24C363.368,455.122 362.553,456.109 361.86,457.18C361.79,457.28 361.74,457.37 361.68,457.45C361.443,457.821 361.233,458.209 361.05,458.61C361.05,466.49 353.17,476.11 353.17,476.11L345.48,465L345.33,464.78L343.5,462.12L342.85,461.26L342.63,460.96L338.63,455.59L337.63,454.25L337.3,453.8L336.81,453.15L335.66,451.62L331.16,454.25L325.16,457.75L321.66,480.5L321.66,481.13L321.77,483.01L322.5,495.37L322.5,495.54L321.22,500.66L321.41,500.76C324.43,502.389 327.573,503.78 330.81,504.92L331.66,505.22C332.66,505.55 333.6,505.85 334.58,506.14C334.616,506.288 334.643,506.438 334.66,506.59L334.66,506.16C346.93,509.666 359.94,509.666 372.21,506.16L372.44,506.09C373.01,505.93 373.59,505.76 374.15,505.57L375.06,505.28C377.528,504.455 379.945,503.486 382.3,502.38L383.14,484.48L383.74,471.57L383.74,470.83L380.32,457.12Z" style="fill-opacity:0.1;fill-rule:nonzero;"/>
        </g>
        <g transform="matrix(1,0,0,1,-43.2,-23.86)">
            <path d="M373.12,490.37C373.12,489.97 373.12,489.57 373.05,489.17C372.98,488.77 372.99,488.42 372.94,488.04C372.89,487.66 372.85,487.28 372.8,486.9C372.75,486.52 372.68,486.14 372.61,485.76C372.54,485.38 372.47,485 372.39,484.62C372.39,484.49 372.34,484.37 372.31,484.24C372.2,483.74 372.08,483.24 371.95,482.73C371.82,482.22 371.74,481.92 371.62,481.52C371.62,481.34 371.52,481.16 371.46,480.99C371.4,480.82 371.29,480.41 371.2,480.12L371.02,479.56C370.94,479.31 370.86,479.06 370.77,478.81C370.62,478.36 370.46,477.92 370.3,477.47C370.14,477.02 369.97,476.58 369.8,476.14C369.46,475.24 369.09,474.35 368.72,473.46C367.27,470 365.64,466.59 364.14,463.21C363.334,461.438 362.62,459.626 362,457.78L361.81,458.05C361.506,458.51 361.235,458.991 361,459.49C361,467.36 353.12,476.99 353.12,476.99L345.19,465.44L338.25,476.11C337.25,476.64 336.25,478.46 335.47,481.05C335.25,481.75 335.04,482.51 334.84,483.32C334.7,483.86 334.57,484.43 334.45,485C334.38,485.29 334.32,485.58 334.26,485.88L334.08,486.79L334.08,486.93C333.96,487.55 333.84,488.19 333.73,488.84C333.62,489.49 333.49,490.24 333.38,490.95C333.3,491.41 333.23,491.87 333.17,492.33C333.03,493.22 332.91,494.12 332.79,495.01C332.72,495.53 332.65,496.01 332.59,496.56L332.35,498.56C332.86,500.2 333.43,501.82 334.02,503.41C334.397,504.281 334.617,505.212 334.67,506.16C346.94,509.666 359.95,509.666 372.22,506.16C372.216,506.127 372.216,506.093 372.22,506.06C372.035,505.162 371.955,504.246 371.98,503.33C372.182,500.765 372.516,498.211 372.98,495.68C373.128,494.432 373.191,493.176 373.17,491.92L373.17,491.47C373.14,491.09 373.13,490.73 373.12,490.37ZM373.12,490.37C373.12,489.97 373.12,489.57 373.05,489.17C372.98,488.77 372.99,488.42 372.94,488.04C372.89,487.66 372.85,487.28 372.8,486.9C372.75,486.52 372.68,486.14 372.61,485.76C372.54,485.38 372.47,485 372.39,484.62C372.39,484.49 372.34,484.37 372.31,484.24C372.2,483.74 372.08,483.24 371.95,482.73C371.82,482.22 371.74,481.92 371.62,481.52C371.62,481.34 371.52,481.16 371.46,480.99C371.4,480.82 371.29,480.41 371.2,480.12L371.02,479.56C370.94,479.31 370.86,479.06 370.77,478.81C370.62,478.36 370.46,477.92 370.3,477.47C370.14,477.02 369.97,476.58 369.8,476.14C369.46,475.24 369.09,474.35 368.72,473.46C367.27,470 365.64,466.59 364.14,463.21C363.334,461.438 362.62,459.626 362,457.78L361.81,458.05C361.506,458.51 361.235,458.991 361,459.49C361,467.36 353.12,476.99 353.12,476.99L345.19,465.44L338.25,476.11C337.25,476.64 336.25,478.46 335.47,481.05C335.25,481.75 335.04,482.51 334.84,483.32C334.7,483.86 334.57,484.43 334.45,485C334.38,485.29 334.32,485.58 334.26,485.88L334.08,486.79L334.08,486.93C333.96,487.55 333.84,488.19 333.73,488.84C333.62,489.49 333.49,490.24 333.38,490.95C333.3,491.41 333.23,491.87 333.17,492.33C333.03,493.22 332.91,494.12 332.79,495.01C332.72,495.53 332.65,496.01 332.59,496.56L332.35,498.56C332.86,500.2 333.43,501.82 334.02,503.41C334.397,504.281 334.617,505.212 334.67,506.16C346.94,509.666 359.95,509.666 372.22,506.16C372.216,506.127 372.216,506.093 372.22,506.06C372.035,505.162 371.955,504.246 371.98,503.33C372.182,500.765 372.516,498.211 372.98,495.68C373.128,494.432 373.191,493.176 373.17,491.92L373.17,491.47C373.14,491.09 373.13,490.73 373.12,490.37ZM373.12,490.37C373.12,489.97 373.12,489.57 373.05,489.17C372.98,488.77 372.99,488.42 372.94,488.04C372.89,487.66 372.85,487.28 372.8,486.9C372.75,486.52 372.68,486.14 372.61,485.76C372.54,485.38 372.47,485 372.39,484.62C372.39,484.49 372.34,484.37 372.31,484.24C372.2,483.74 372.08,483.24 371.95,482.73C371.82,482.22 371.74,481.92 371.62,481.52C371.62,481.34 371.52,481.16 371.46,480.99C371.4,480.82 371.29,480.41 371.2,480.12L371.02,479.56C370.94,479.31 370.86,479.06 370.77,478.81C370.62,478.36 370.46,477.92 370.3,477.47C370.14,477.02 369.97,476.58 369.8,476.14C369.46,475.24 369.09,474.35 368.72,473.46C367.27,470 365.64,466.59 364.14,463.21C363.334,461.438 362.62,459.626 362,457.78L361.81,458.05C361.506,458.51 361.235,458.991 361,459.49C361,467.36 353.12,476.99 353.12,476.99L345.19,465.44L338.25,476.11C337.25,476.64 336.25,478.46 335.47,481.05C335.25,481.75 335.04,482.51 334.84,483.32C334.7,483.86 334.57,484.43 334.45,485C334.38,485.29 334.32,485.58 334.26,485.88L334.08,486.79L334.08,486.93C333.96,487.55 333.84,488.19 333.73,488.84C333.62,489.49 333.49,490.24 333.38,490.95C333.3,491.41 333.23,491.87 333.17,492.33C333.03,493.22 332.91,494.12 332.79,495.01C332.72,495.53 332.65,496.01 332.59,496.56L332.35,498.56C332.86,500.2 333.43,501.82 334.02,503.41C334.397,504.281 334.617,505.212 334.67,506.16C346.94,509.666 359.95,509.666 372.22,506.16C372.216,506.127 372.216,506.093 372.22,506.06C372.035,505.162 371.955,504.246 371.98,503.33C372.182,500.765 372.516,498.211 372.98,495.68C373.128,494.432 373.191,493.176 373.17,491.92L373.17,491.47C373.14,491.09 373.13,490.73 373.12,490.37ZM383.72,471.6L380.15,457.35L379.54,454.91L379.37,454.24L378.5,450.76C378.502,450.73 378.502,450.7 378.5,450.67C378.521,450.516 378.496,450.36 378.43,450.22C378.3,449.96 377.97,449.69 377.2,449.62C376.907,449.599 376.613,449.599 376.32,449.62C375.451,449.706 374.591,449.867 373.75,450.1C373.34,450.21 372.9,450.33 372.43,450.48L371.57,450.75L371.49,450.75C369.187,451.506 367.049,452.694 365.19,454.25C363.962,455.274 362.885,456.465 361.99,457.79L361.8,458.06C361.496,458.52 361.225,459.001 360.99,459.5C360.99,467.37 353.11,477 353.11,477L345.18,465.45L344.73,464.8L344.65,464.69L343.5,463L342.63,461.84L342.4,461.54L338.3,456.07L337,454.3L337,454.24L336.55,453.63L335.69,452.49L332.69,454.24L325.19,458.61L321.73,481.12L321.73,481.36L321.83,483L322.57,495.53L322.57,496.24L321.44,500.75C324.46,502.379 327.603,503.77 330.84,504.91L331.69,505.21C332.69,505.54 333.63,505.84 334.61,506.13C334.646,506.278 334.673,506.428 334.69,506.58L334.69,506.15C346.96,509.656 359.97,509.656 372.24,506.15L372.47,506.08C373.04,505.92 373.62,505.75 374.18,505.56L375.09,505.27C377.558,504.445 379.975,503.476 382.33,502.37L383.16,484.49L383.76,471.72L383.72,471.6ZM334.54,506.13C334.576,506.278 334.603,506.428 334.62,506.58L334.62,506.15L334.54,506.13ZM373.12,490.37C373.12,489.97 373.12,489.57 373.05,489.17C372.98,488.77 372.99,488.42 372.94,488.04C372.89,487.66 372.85,487.28 372.8,486.9C372.75,486.52 372.68,486.14 372.61,485.76C372.54,485.38 372.47,485 372.39,484.62C372.39,484.49 372.34,484.37 372.31,484.24C372.2,483.74 372.08,483.24 371.95,482.73C371.82,482.22 371.74,481.92 371.62,481.52C371.62,481.34 371.52,481.16 371.46,480.99C371.4,480.82 371.29,480.41 371.2,480.12L371.02,479.56C370.94,479.31 370.86,479.06 370.77,478.81C370.62,478.36 370.46,477.92 370.3,477.47C370.14,477.02 369.97,476.58 369.8,476.14C369.46,475.24 369.09,474.35 368.72,473.46C367.27,470 365.64,466.59 364.14,463.21C363.334,461.438 362.62,459.626 362,457.78L361.81,458.05C361.506,458.51 361.235,458.991 361,459.49C361,467.36 353.12,476.99 353.12,476.99L345.19,465.44L338.25,476.11C337.25,476.64 336.25,478.46 335.47,481.05C335.25,481.75 335.04,482.51 334.84,483.32C334.7,483.86 334.57,484.43 334.45,485C334.38,485.29 334.32,485.58 334.26,485.88L334.08,486.79L334.08,486.93C333.96,487.55 333.84,488.19 333.73,488.84C333.62,489.49 333.49,490.24 333.38,490.95C333.3,491.41 333.23,491.87 333.17,492.33C333.03,493.22 332.91,494.12 332.79,495.01C332.72,495.53 332.65,496.01 332.59,496.56L332.35,498.56C332.86,500.2 333.43,501.82 334.02,503.41C334.397,504.281 334.617,505.212 334.67,506.16C346.94,509.666 359.95,509.666 372.22,506.16C372.216,506.127 372.216,506.093 372.22,506.06C372.035,505.162 371.955,504.246 371.98,503.33C372.182,500.765 372.516,498.211 372.98,495.68C373.128,494.432 373.191,493.176 373.17,491.92L373.17,491.47C373.14,491.09 373.13,490.73 373.12,490.37ZM373.12,490.37C373.12,489.97 373.12,489.57 373.05,489.17C372.98,488.77 372.99,488.42 372.94,488.04C372.89,487.66 372.85,487.28 372.8,486.9C372.75,486.52 372.68,486.14 372.61,485.76C372.54,485.38 372.47,485 372.39,484.62C372.39,484.49 372.34,484.37 372.31,484.24C372.2,483.74 372.08,483.24 371.95,482.73C371.82,482.22 371.74,481.92 371.62,481.52C371.62,481.34 371.52,481.16 371.46,480.99C371.4,480.82 371.29,480.41 371.2,480.12L371.02,479.56C370.94,479.31 370.86,479.06 370.77,478.81C370.62,478.36 370.46,477.92 370.3,477.47C370.14,477.02 369.97,476.58 369.8,476.14C369.46,475.24 369.09,474.35 368.72,473.46C367.27,470 365.64,466.59 364.14,463.21C363.334,461.438 362.62,459.626 362,457.78L361.81,458.05C361.506,458.51 361.235,458.991 361,459.49C361,467.36 353.12,476.99 353.12,476.99L345.19,465.44L338.25,476.11C337.25,476.64 336.25,478.46 335.47,481.05C335.25,481.75 335.04,482.51 334.84,483.32C334.7,483.86 334.57,484.43 334.45,485C334.38,485.29 334.32,485.58 334.26,485.88L334.08,486.79L334.08,486.93C333.96,487.55 333.84,488.19 333.73,488.84C333.62,489.49 333.49,490.24 333.38,490.95C333.3,491.41 333.23,491.87 333.17,492.33C333.03,493.22 332.91,494.12 332.79,495.01C332.72,495.53 332.65,496.01 332.59,496.56L332.35,498.56C332.86,500.2 333.43,501.82 334.02,503.41C334.397,504.281 334.617,505.212 334.67,506.16C346.94,509.666 359.95,509.666 372.22,506.16C372.216,506.127 372.216,506.093 372.22,506.06C372.035,505.162 371.955,504.246 371.98,503.33C372.182,500.765 372.516,498.211 372.98,495.68C373.128,494.432 373.191,493.176 373.17,491.92L373.17,491.47C373.14,491.09 373.13,490.73 373.12,490.37ZM373.12,490.37C373.12,489.97 373.12,489.57 373.05,489.17C372.98,488.77 372.99,488.42 372.94,488.04C372.89,487.66 372.85,487.28 372.8,486.9C372.75,486.52 372.68,486.14 372.61,485.76C372.54,485.38 372.47,485 372.39,484.62C372.39,484.49 372.34,484.37 372.31,484.24C372.2,483.74 372.08,483.24 371.95,482.73C371.82,482.22 371.74,481.92 371.62,481.52C371.62,481.34 371.52,481.16 371.46,480.99C371.4,480.82 371.29,480.41 371.2,480.12L371.02,479.56C370.94,479.31 370.86,479.06 370.77,478.81C370.62,478.36 370.46,477.92 370.3,477.47C370.14,477.02 369.97,476.58 369.8,476.14C369.46,475.24 369.09,474.35 368.72,473.46C367.27,470 365.64,466.59 364.14,463.21C363.334,461.438 362.62,459.626 362,457.78L361.81,458.05C361.506,458.51 361.235,458.991 361,459.49C361,467.36 353.12,476.99 353.12,476.99L345.19,465.44L338.25,476.11C337.25,476.64 336.25,478.46 335.47,481.05C335.25,481.75 335.04,482.51 334.84,483.32C334.7,483.86 334.57,484.43 334.45,485C334.38,485.29 334.32,485.58 334.26,485.88L334.08,486.79L334.08,486.93C333.96,487.55 333.84,488.19 333.73,488.84C333.62,489.49 333.49,490.24 333.38,490.95C333.3,491.41 333.23,491.87 333.17,492.33C333.03,493.22 332.91,494.12 332.79,495.01C332.72,495.53 332.65,496.01 332.59,496.56L332.35,498.56C332.86,500.2 333.43,501.82 334.02,503.41C334.397,504.281 334.617,505.212 334.67,506.16C346.94,509.666 359.95,509.666 372.22,506.16C372.216,506.127 372.216,506.093 372.22,506.06C372.035,505.162 371.955,504.246 371.98,503.33C372.182,500.765 372.516,498.211 372.98,495.68C373.128,494.432 373.191,493.176 373.17,491.92L373.17,491.47C373.14,491.09 373.13,490.73 373.12,490.37ZM373.12,490.37C373.12,489.97 373.12,489.57 373.05,489.17C372.98,488.77 372.99,488.42 372.94,488.04C372.89,487.66 372.85,487.28 372.8,486.9C372.75,486.52 372.68,486.14 372.61,485.76C372.54,485.38 372.47,485 372.39,484.62C372.39,484.49 372.34,484.37 372.31,484.24C372.2,483.74 372.08,483.24 371.95,482.73C371.82,482.22 371.74,481.92 371.62,481.52C371.62,481.34 371.52,481.16 371.46,480.99C371.4,480.82 371.29,480.41 371.2,480.12L371.02,479.56C370.94,479.31 370.86,479.06 370.77,478.81C370.62,478.36 370.46,477.92 370.3,477.47C370.14,477.02 369.97,476.58 369.8,476.14C369.46,475.24 369.09,474.35 368.72,473.46C367.27,470 365.64,466.59 364.14,463.21C363.334,461.438 362.62,459.626 362,457.78L361.81,458.05C361.506,458.51 361.235,458.991 361,459.49C361,467.36 353.12,476.99 353.12,476.99L345.19,465.44L338.25,476.11C337.25,476.64 336.25,478.46 335.47,481.05C335.25,481.75 335.04,482.51 334.84,483.32C334.7,483.86 334.57,484.43 334.45,485C334.38,485.29 334.32,485.58 334.26,485.88L334.08,486.79L334.08,486.93C333.96,487.55 333.84,488.19 333.73,488.84C333.62,489.49 333.49,490.24 333.38,490.95C333.3,491.41 333.23,491.87 333.17,492.33C333.03,493.22 332.91,494.12 332.79,495.01C332.72,495.53 332.65,496.01 332.59,496.56L332.35,498.56C332.86,500.2 333.43,501.82 334.02,503.41C334.397,504.281 334.617,505.212 334.67,506.16C346.94,509.666 359.95,509.666 372.22,506.16C372.216,506.127 372.216,506.093 372.22,506.06C372.035,505.162 371.955,504.246 371.98,503.33C372.182,500.765 372.516,498.211 372.98,495.68C373.128,494.432 373.191,493.176 373.17,491.92L373.17,491.47C373.14,491.09 373.13,490.73 373.12,490.37ZM373.12,490.37C373.12,489.97 373.12,489.57 373.05,489.17C372.98,488.77 372.99,488.42 372.94,488.04C372.89,487.66 372.85,487.28 372.8,486.9C372.75,486.52 372.68,486.14 372.61,485.76C372.54,485.38 372.47,485 372.39,484.62C372.39,484.49 372.34,484.37 372.31,484.24C372.2,483.74 372.08,483.24 371.95,482.73C371.82,482.22 371.74,481.92 371.62,481.52C371.62,481.34 371.52,481.16 371.46,480.99C371.4,480.82 371.29,480.41 371.2,480.12L371.02,479.56C370.94,479.31 370.86,479.06 370.77,478.81C370.62,478.36 370.46,477.92 370.3,477.47C370.14,477.02 369.97,476.58 369.8,476.14C369.46,475.24 369.09,474.35 368.72,473.46C367.27,470 365.64,466.59 364.14,463.21C363.334,461.438 362.62,459.626 362,457.78L361.81,458.05C361.506,458.51 361.235,458.991 361,459.49C361,467.36 353.12,476.99 353.12,476.99L345.19,465.44L338.25,476.11C337.25,476.64 336.25,478.46 335.47,481.05C335.25,481.75 335.04,482.51 334.84,483.32C334.7,483.86 334.57,484.43 334.45,485C334.38,485.29 334.32,485.58 334.26,485.88L334.08,486.79L334.08,486.93C333.96,487.55 333.84,488.19 333.73,488.84C333.62,489.49 333.49,490.24 333.38,490.95C333.3,491.41 333.23,491.87 333.17,492.33C333.03,493.22 332.91,494.12 332.79,495.01C332.72,495.53 332.65,496.01 332.59,496.56L332.35,498.56C332.86,500.2 333.43,501.82 334.02,503.41C334.397,504.281 334.617,505.212 334.67,506.16C346.94,509.666 359.95,509.666 372.22,506.16C372.216,506.127 372.216,506.093 372.22,506.06C372.035,505.162 371.955,504.246 371.98,503.33C372.182,500.765 372.516,498.211 372.98,495.68C373.128,494.432 373.191,493.176 373.17,491.92L373.17,491.47C373.14,491.09 373.13,490.73 373.12,490.37ZM373.12,490.37C373.12,489.97 373.12,489.57 373.05,489.17C372.98,488.77 372.99,488.42 372.94,488.04C372.89,487.66 372.85,487.28 372.8,486.9C372.75,486.52 372.68,486.14 372.61,485.76C372.54,485.38 372.47,485 372.39,484.62C372.39,484.49 372.34,484.37 372.31,484.24C372.2,483.74 372.08,483.24 371.95,482.73C371.82,482.22 371.74,481.92 371.62,481.52C371.62,481.34 371.52,481.16 371.46,480.99C371.4,480.82 371.29,480.41 371.2,480.12L371.02,479.56C370.94,479.31 370.86,479.06 370.77,478.81C370.62,478.36 370.46,477.92 370.3,477.47C370.14,477.02 369.97,476.58 369.8,476.14C369.46,475.24 369.09,474.35 368.72,473.46C367.27,470 365.64,466.59 364.14,463.21C363.334,461.438 362.62,459.626 362,457.78L361.81,458.05C361.506,458.51 361.235,458.991 361,459.49C361,467.36 353.12,476.99 353.12,476.99L345.19,465.44L338.25,476.11C337.25,476.64 336.25,478.46 335.47,481.05C335.25,481.75 335.04,482.51 334.84,483.32C334.7,483.86 334.57,484.43 334.45,485C334.38,485.29 334.32,485.58 334.26,485.88L334.08,486.79L334.08,486.93C333.96,487.55 333.84,488.19 333.73,488.84C333.62,489.49 333.49,490.24 333.38,490.95C333.3,491.41 333.23,491.87 333.17,492.33C333.03,493.22 332.91,494.12 332.79,495.01C332.72,495.53 332.65,496.01 332.59,496.56L332.35,498.56C332.86,500.2 333.43,501.82 334.02,503.41C334.397,504.281 334.617,505.212 334.67,506.16C346.94,509.666 359.95,509.666 372.22,506.16C372.216,506.127 372.216,506.093 372.22,506.06C372.035,505.162 371.955,504.246 371.98,503.33C372.182,500.765 372.516,498.211 372.98,495.68C373.128,494.432 373.191,493.176 373.17,491.92L373.17,491.47C373.14,491.09 373.13,490.73 373.12,490.37ZM373.12,490.37C373.12,489.97 373.12,489.57 373.05,489.17C372.98,488.77 372.99,488.42 372.94,488.04C372.89,487.66 372.85,487.28 372.8,486.9C372.75,486.52 372.68,486.14 372.61,485.76C372.54,485.38 372.47,485 372.39,484.62C372.39,484.49 372.34,484.37 372.31,484.24C372.2,483.74 372.08,483.24 371.95,482.73C371.82,482.22 371.74,481.92 371.62,481.52C371.62,481.34 371.52,481.16 371.46,480.99C371.4,480.82 371.29,480.41 371.2,480.12L371.02,479.56C370.94,479.31 370.86,479.06 370.77,478.81C370.62,478.36 370.46,477.92 370.3,477.47C370.14,477.02 369.97,476.58 369.8,476.14C369.46,475.24 369.09,474.35 368.72,473.46C367.27,470 365.64,466.59 364.14,463.21C363.334,461.438 362.62,459.626 362,457.78L361.81,458.05C361.506,458.51 361.235,458.991 361,459.49C361,467.36 353.12,476.99 353.12,476.99L345.19,465.44L338.25,476.11C337.25,476.64 336.25,478.46 335.47,481.05C335.25,481.75 335.04,482.51 334.84,483.32C334.7,483.86 334.57,484.43 334.45,485C334.38,485.29 334.32,485.58 334.26,485.88L334.08,486.79L334.08,486.93C333.96,487.55 333.84,488.19 333.73,488.84C333.62,489.49 333.49,490.24 333.38,490.95C333.3,491.41 333.23,491.87 333.17,492.33C333.03,493.22 332.91,494.12 332.79,495.01C332.72,495.53 332.65,496.01 332.59,496.56L332.35,498.56C332.86,500.2 333.43,501.82 334.02,503.41C334.397,504.281 334.617,505.212 334.67,506.16C346.94,509.666 359.95,509.666 372.22,506.16C372.216,506.127 372.216,506.093 372.22,506.06C372.035,505.162 371.955,504.246 371.98,503.33C372.182,500.765 372.516,498.211 372.98,495.68C373.128,494.432 373.191,493.176 373.17,491.92L373.17,491.47C373.14,491.09 373.13,490.73 373.12,490.37ZM373.12,490.37C373.12,489.97 373.12,489.57 373.05,489.17C372.98,488.77 372.99,488.42 372.94,488.04C372.89,487.66 372.85,487.28 372.8,486.9C372.75,486.52 372.68,486.14 372.61,485.76C372.54,485.38 372.47,485 372.39,484.62C372.39,484.49 372.34,484.37 372.31,484.24C372.2,483.74 372.08,483.24 371.95,482.73C371.82,482.22 371.74,481.92 371.62,481.52C371.62,481.34 371.52,481.16 371.46,480.99C371.4,480.82 371.29,480.41 371.2,480.12L371.02,479.56C370.94,479.31 370.86,479.06 370.77,478.81C370.62,478.36 370.46,477.92 370.3,477.47C370.14,477.02 369.97,476.58 369.8,476.14C369.46,475.24 369.09,474.35 368.72,473.46C367.27,470 365.64,466.59 364.14,463.21C363.334,461.438 362.62,459.626 362,457.78L361.81,458.05C361.506,458.51 361.235,458.991 361,459.49C361,467.36 353.12,476.99 353.12,476.99L345.19,465.44L338.25,476.11C337.25,476.64 336.25,478.46 335.47,481.05C335.25,481.75 335.04,482.51 334.84,483.32C334.7,483.86 334.57,484.43 334.45,485C334.38,485.29 334.32,485.58 334.26,485.88L334.08,486.79L334.08,486.93C333.96,487.55 333.84,488.19 333.73,488.84C333.62,489.49 333.49,490.24 333.38,490.95C333.3,491.41 333.23,491.87 333.17,492.33C333.03,493.22 332.91,494.12 332.79,495.01C332.72,495.53 332.65,496.01 332.59,496.56L332.35,498.56C332.86,500.2 333.43,501.82 334.02,503.41C334.397,504.281 334.617,505.212 334.67,506.16C346.94,509.666 359.95,509.666 372.22,506.16C372.216,506.127 372.216,506.093 372.22,506.06C372.035,505.162 371.955,504.246 371.98,503.33C372.182,500.765 372.516,498.211 372.98,495.68C373.128,494.432 373.191,493.176 373.17,491.92L373.17,491.47C373.14,491.09 373.13,490.73 373.12,490.37Z" style="fill:white;fill-rule:nonzero;"/>
        </g>
        <g transform="matrix(1,0,0,1,-43.2,-23.86)">
            <path d="M345.33,464.77L344.66,464.68C343.648,464.543 342.646,464.343 341.66,464.08L341.29,463.98C338.85,463.29 336.18,462.05 335.58,459.87C335.401,459.168 335.422,458.431 335.64,457.74C335.976,456.55 336.431,455.398 337,454.3L337,454.24C337.075,454.086 337.159,453.935 337.25,453.79C338.075,452.177 339.323,450.819 340.86,449.86L339.66,450.05L329.5,451.7L313.75,454.24C313.75,454.24 310.95,453.68 307.14,464.18C307.14,464.31 307.05,464.43 307.01,464.57C306.09,467.14 305.12,470.35 304.12,474.36C303.43,477.14 302.8,479.87 302.22,482.52C302.05,483.32 301.88,484.11 301.72,484.89C303.523,487.015 305.464,489.02 307.53,490.89L307.86,491.2C311.907,494.865 316.379,498.031 321.18,500.63L321.37,500.73C324.39,502.359 327.533,503.75 330.77,504.89L331.62,505.19C331.8,503.34 332,501.29 332.24,499.19C332.24,498.98 332.24,498.77 332.32,498.56L332.56,496.56C332.62,496.05 332.69,495.56 332.76,495.01C332.88,494.12 333,493.22 333.14,492.33C333.2,491.87 333.27,491.41 333.35,490.95C333.46,490.24 333.58,489.53 333.7,488.84C333.82,488.15 333.93,487.55 334.05,486.93L334.05,486.79L334.23,485.88C334.29,485.58 334.35,485.29 334.42,485C334.54,484.43 334.67,483.86 334.81,483.32C335.01,482.51 335.22,481.75 335.44,481.05C336.24,478.46 337.17,476.64 338.22,476.11L345.16,465.44L345.45,464.99L345.58,464.79L345.33,464.77Z" style="fill-opacity:0.1;fill-rule:nonzero;"/>
        </g>
        <g transform="matrix(1,0,0,1,-43.2,-23.86)">
            <path d="M344.74,464.79L337.37,476.11C336.37,476.62 335.43,478.39 334.64,480.9C334.41,481.64 334.18,482.45 333.96,483.3C332.965,487.618 332.21,491.988 331.7,496.39C331.7,496.59 331.7,496.79 331.62,496.99C331.28,499.77 331,502.5 330.77,504.91C327.533,503.77 324.39,502.379 321.37,500.75L321.18,500.65C316.379,498.051 311.907,494.885 307.86,491.22L307.53,490.91C305.464,489.04 303.523,487.035 301.72,484.91C301.48,484.64 301.25,484.36 301.02,484.08C301.13,483.56 301.24,483.08 301.36,482.52C301.93,479.87 302.56,477.15 303.25,474.38C304.16,470.583 305.296,466.843 306.65,463.18C306.687,463.071 306.731,462.964 306.78,462.86C310.32,453.75 312.87,454.26 312.87,454.26L329.5,451.58L340,449.88L339.67,450.07C338.511,450.893 337.528,451.941 336.78,453.15L336.49,453.64C336.37,453.83 336.26,454.04 336.14,454.25C335.557,455.364 335.094,456.538 334.76,457.75C334.45,458.696 334.536,459.729 335,460.61C336,462.55 338.84,463.61 341.17,464.19L341.56,464.29C342.608,464.525 343.67,464.692 344.74,464.79Z" style="fill:rgb(68,65,118);fill-rule:nonzero;"/>
        </g>
        <g transform="matrix(1,0,0,1,-43.2,-23.86)">
            <path d="M402.53,485L402.12,476.12C403.87,462.12 400.37,461.25 400.37,461.25L396.21,459.25L396.1,459.25L379.37,451.14L378.72,450.82L378.52,450.73L376.34,449.67L374.96,449L372.38,447.75L371.51,447.33L371.51,450.8C371.51,451.8 371.6,452.97 371.68,454.33C371.86,457.75 372.19,462.33 372.78,467.73C373.11,470.86 373.53,474.28 374.05,477.95C374.36,480.12 374.58,482.28 374.72,484.39C375.17,491.495 374.949,498.626 374.06,505.69L374.97,505.4C377.438,504.575 379.855,503.606 382.21,502.5C386.798,500.36 391.126,497.703 395.11,494.58L395.29,494.45C397.868,492.434 400.295,490.232 402.55,487.86L402.53,485Z" style="fill-opacity:0.1;fill-rule:nonzero;"/>
        </g>
        <g transform="matrix(1,0,0,1,-43.2,-23.86)">
            <path d="M403.41,485L403,476.1C404.75,462.1 401.25,461.23 401.25,461.23L396.25,458.81L396.15,458.81L379.37,450.67L378.6,450.3L378.45,450.23L377.22,449.63L375.59,448.84L372.37,447.28L372.37,450.46C372.37,451.46 372.46,452.77 372.55,454.26C372.72,457.45 373.02,461.63 373.55,466.6C373.91,470.01 374.36,473.8 374.95,477.88C375.257,480.06 375.477,482.217 375.61,484.35C376.055,491.354 375.847,498.384 374.99,505.35C377.458,504.525 379.875,503.556 382.23,502.45C386.818,500.31 391.146,497.653 395.13,494.53L395.31,494.4C397.888,492.384 400.315,490.182 402.57,487.81C402.863,487.517 403.143,487.217 403.41,486.91L403.41,485Z" style="fill:rgb(68,65,118);fill-rule:nonzero;"/>
        </g>
        <g transform="matrix(1,0,0,1,-43.2,-23.86)">
            <path d="M332.7,393.94C331.7,395.32 331.78,397.22 331.33,398.94C330.26,402.85 326.02,405.3 325.05,409.24C324.48,411.54 325.14,413.98 324.75,416.32C324.04,420.63 320.1,423.55 317.9,427.32C315.642,431.252 315.306,436.01 316.99,440.22C317.505,441.269 317.93,442.359 318.26,443.48C318.512,445.15 318.407,446.854 317.95,448.48C317.2,452.04 316.43,455.96 318.15,459.17C319.6,461.88 322.61,463.47 325.64,463.97C328.7,464.316 331.795,464.174 334.81,463.55C338.12,463.04 341.51,462.45 344.39,460.75L333.56,434.61C332.47,431.97 331.35,429.24 331.36,426.38C331.448,424.27 331.905,422.192 332.71,420.24C334.807,414.584 337.85,409.326 341.71,404.69C343.28,406.51 343.16,409.28 344.47,411.3C345.627,412.793 347.169,413.945 348.93,414.63C354.061,417.133 359.334,419.337 364.72,421.23C365.751,421.359 366.532,422.245 366.532,423.284C366.532,423.644 366.438,423.997 366.26,424.31L362.18,441.15C361.28,444.86 360.49,449.15 362.8,452.15C365.11,455.15 370.32,456.57 370.35,460.44C370.307,461.053 370.307,461.667 370.35,462.28C370.62,464.09 372.77,464.96 374.6,465.05C380.778,465.172 386.189,460.757 387.31,454.68C388.31,448.06 383.93,441.96 382.1,435.51C379.02,424.66 383.1,411.93 377.05,402.4C372.15,394.67 363.22,392.57 354.74,391.61C348.79,390.91 336.89,388.41 332.7,393.94Z" style="fill-opacity:0.1;fill-rule:nonzero;"/>
        </g>
        <g transform="matrix(1,0,0,1,-43.2,-23.86)">
            <path d="M332.7,392.94C331.7,394.32 331.78,396.22 331.33,397.94C330.26,401.85 326.02,404.3 325.05,408.24C324.48,410.54 325.14,412.98 324.75,415.32C324.04,419.63 320.1,422.55 317.9,426.32C315.642,430.252 315.306,435.01 316.99,439.22C317.505,440.269 317.93,441.359 318.26,442.48C318.512,444.15 318.407,445.854 317.95,447.48C317.2,451.04 316.43,454.96 318.15,458.17C319.6,460.88 322.61,462.47 325.64,462.97C328.7,463.316 331.795,463.174 334.81,462.55C338.12,462.04 341.51,461.45 344.39,459.75L333.56,433.61C332.47,430.97 331.35,428.24 331.36,425.38C331.448,423.27 331.905,421.192 332.71,419.24C334.807,413.584 337.85,408.326 341.71,403.69C343.28,405.51 343.16,408.28 344.47,410.3C345.627,411.793 347.169,412.945 348.93,413.63C354.061,416.133 359.334,418.337 364.72,420.23C365.751,420.359 366.532,421.245 366.532,422.284C366.532,422.644 366.438,422.997 366.26,423.31L362.18,440.15C361.28,443.86 360.49,448.15 362.8,451.15C365.11,454.15 370.32,455.57 370.35,459.44C370.307,460.053 370.307,460.667 370.35,461.28C370.62,463.09 372.77,463.96 374.6,464.05C380.778,464.172 386.189,459.757 387.31,453.68C388.31,447.06 383.93,440.96 382.1,434.51C379.02,423.66 383.1,410.93 377.05,401.4C372.15,393.67 363.22,391.57 354.74,390.61C348.79,389.91 336.89,387.41 332.7,392.94Z" style="fill:rgb(73,53,69);fill-rule:nonzero;"/>
        </g>
    </g>
    <g opacity="0.5">
        <g transform="matrix(1,0,0,1,-43.2,-23.86)">
            <path d="M421.48,681.8C421.508,698.032 415.695,713.744 405.11,726.05C404.59,726.66 404.05,727.26 403.5,727.85C403.227,728.157 402.947,728.457 402.66,728.75C400.405,731.122 397.978,733.324 395.4,735.34L395.22,735.47C391.236,738.593 386.908,741.25 382.32,743.39C379.965,744.496 377.548,745.465 375.08,746.29L374.17,746.58C373.61,746.77 373.03,746.94 372.46,747.1L372.23,747.17C359.96,750.676 346.95,750.676 334.68,747.17L334.58,747.17C333.58,746.88 332.58,746.58 331.66,746.25L330.81,745.95C327.573,744.81 324.43,743.419 321.41,741.79L321.22,741.69C316.419,739.091 311.947,735.925 307.9,732.26L307.57,731.95C305.504,730.08 303.563,728.075 301.76,725.95C301.52,725.68 301.29,725.4 301.06,725.12C300.62,724.6 300.2,724.06 299.78,723.52C290.513,711.591 285.48,696.908 285.48,681.803C285.48,644.499 316.176,613.803 353.48,613.803C390.783,613.803 421.478,644.497 421.48,681.8Z" style="fill:rgb(192,188,207);fill-rule:nonzero;"/>
        </g>
        <g transform="matrix(1,0,0,1,-43.2,-23.86)">
            <path d="M326.55,660.79C326.64,664.14 324.36,667 322.55,669.79C320.74,672.58 319.4,676.39 321.26,679.18C321.87,680.1 322.79,680.81 323.34,681.77C325.27,685.12 322.06,688.97 320.89,692.65C319.54,696.9 321.11,701.65 323.95,705.1C326.79,708.55 330.71,710.88 334.67,712.93C342.996,717.367 351.933,720.548 361.19,722.37C366.03,723.26 371.19,723.66 375.73,721.72C382.191,718.756 385.816,711.699 384.46,704.72C383.31,699.46 379.46,695.23 377.46,690.26C376.993,689.284 376.767,688.211 376.8,687.13C376.97,685.24 378.42,683.76 379.55,682.23C382.383,678.065 383.541,672.981 382.79,668C382.001,663.018 380.093,658.279 377.21,654.14C376.18,652.424 374.82,650.929 373.21,649.74C371.03,648.27 368.33,647.85 365.73,647.48C354.87,645.96 343.62,644.3 332.67,643.74C329.21,643.56 326.67,644.24 324.96,647.48C322.35,652.31 326.42,655.94 326.55,660.79Z" style="fill:rgb(68,65,118);fill-rule:nonzero;"/>
        </g>
        <g transform="matrix(1,0,0,1,-43.2,-23.86)">
            <path d="M382.48,694.8L361.87,724.11L341.75,722.36C341.75,722.36 341.09,729.36 333,703.99C328.48,689.8 337.67,694.73 339.48,690.8C341.29,686.87 344.48,683.4 344.75,680.5C345.39,674.28 343.5,670.74 343.5,670.74L365.37,668.12C364.383,671.067 364.258,674.235 365.01,677.25C367.75,688.63 382.48,694.8 382.48,694.8Z" style="fill:rgb(199,116,133);fill-rule:nonzero;"/>
        </g>
        <ellipse cx="308.28" cy="625.45" rx="26" ry="20.5" style="fill:rgb(68,65,118);"/>
        <g transform="matrix(1,0,0,1,-43.2,-23.86)">
            <path d="M365,677.24C359.213,681.622 351.609,682.845 344.74,680.5C345.38,674.28 343.49,670.74 343.49,670.74L365.36,668.12C364.375,671.064 364.25,674.228 365,677.24Z" style="fill-opacity:0.1;fill-rule:nonzero;"/>
        </g>
        <circle cx="308.61" cy="635.07" r="21.87" style="fill:rgb(199,116,133);"/>
        <g transform="matrix(1,0,0,1,-43.2,-23.86)">
            <path d="M380.32,698.12L379.81,696.12L379.37,694.36L378.72,691.76L378.6,691.28L378.5,690.88C378.5,690.88 379.02,689.31 375.59,689.82L374.95,689.93C374.41,690.04 373.78,690.19 373.06,690.39L372.41,690.59L371.55,690.86C368.827,691.746 366.344,693.245 364.29,695.24C363.368,696.122 362.553,697.109 361.86,698.18C361.79,698.28 361.74,698.37 361.68,698.45C361.443,698.821 361.233,699.209 361.05,699.61C361.05,707.49 353.17,717.11 353.17,717.11L345.48,706L345.33,705.78L343.5,703.12L342.85,702.26L342.63,701.96L338.63,696.59L337.63,695.25L337.3,694.8L336.81,694.15L335.66,692.62L331.16,695.25L325.16,698.75L321.66,721.5L321.66,722.13L321.77,724.01L322.5,736.37L322.5,736.54L321.22,741.66L321.41,741.76C324.43,743.389 327.573,744.78 330.81,745.92L331.66,746.22C332.66,746.55 333.6,746.85 334.58,747.14C334.616,747.288 334.643,747.438 334.66,747.59L334.66,747.16C346.93,750.666 359.94,750.666 372.21,747.16L372.44,747.09C373.01,746.93 373.59,746.76 374.15,746.57L375.06,746.28C377.528,745.455 379.945,744.486 382.3,743.38L383.14,725.48L383.74,712.57L383.74,711.83L380.32,698.12Z" style="fill-opacity:0.1;fill-rule:nonzero;"/>
        </g>
        <g transform="matrix(1,0,0,1,-43.2,-23.86)">
            <path d="M373.12,731.37C373.12,730.97 373.12,730.57 373.05,730.17C372.98,729.77 372.99,729.42 372.94,729.04C372.89,728.66 372.85,728.28 372.8,727.9C372.75,727.52 372.68,727.14 372.61,726.76C372.54,726.38 372.47,726 372.39,725.62C372.39,725.49 372.34,725.37 372.31,725.24C372.2,724.74 372.08,724.24 371.95,723.73C371.82,723.22 371.74,722.92 371.62,722.52C371.62,722.34 371.52,722.16 371.46,721.99C371.4,721.82 371.29,721.41 371.2,721.12L371.02,720.56C370.94,720.31 370.86,720.06 370.77,719.81C370.62,719.36 370.46,718.92 370.3,718.47C370.14,718.02 369.97,717.58 369.8,717.14C369.46,716.24 369.09,715.35 368.72,714.46C367.27,711 365.64,707.59 364.14,704.21C363.334,702.438 362.62,700.626 362,698.78L361.81,699.05C361.506,699.51 361.235,699.991 361,700.49C361,708.36 353.12,717.99 353.12,717.99L345.19,706.44L338.25,717.11C337.25,717.64 336.25,719.46 335.47,722.05C335.25,722.75 335.04,723.51 334.84,724.32C334.7,724.86 334.57,725.43 334.45,726C334.38,726.29 334.32,726.58 334.26,726.88L334.08,727.79L334.08,727.93C333.96,728.55 333.84,729.19 333.73,729.84C333.62,730.49 333.49,731.24 333.38,731.95C333.3,732.41 333.23,732.87 333.17,733.33C333.03,734.22 332.91,735.12 332.79,736.01C332.72,736.53 332.65,737.01 332.59,737.56L332.35,739.56C332.86,741.2 333.43,742.82 334.02,744.41C334.397,745.281 334.617,746.212 334.67,747.16C346.94,750.666 359.95,750.666 372.22,747.16C372.216,747.127 372.216,747.093 372.22,747.06C372.035,746.162 371.955,745.246 371.98,744.33C372.182,741.765 372.516,739.211 372.98,736.68C373.128,735.432 373.191,734.176 373.17,732.92L373.17,732.47C373.14,732.09 373.13,731.73 373.12,731.37ZM373.12,731.37C373.12,730.97 373.12,730.57 373.05,730.17C372.98,729.77 372.99,729.42 372.94,729.04C372.89,728.66 372.85,728.28 372.8,727.9C372.75,727.52 372.68,727.14 372.61,726.76C372.54,726.38 372.47,726 372.39,725.62C372.39,725.49 372.34,725.37 372.31,725.24C372.2,724.74 372.08,724.24 371.95,723.73C371.82,723.22 371.74,722.92 371.62,722.52C371.62,722.34 371.52,722.16 371.46,721.99C371.4,721.82 371.29,721.41 371.2,721.12L371.02,720.56C370.94,720.31 370.86,720.06 370.77,719.81C370.62,719.36 370.46,718.92 370.3,718.47C370.14,718.02 369.97,717.58 369.8,717.14C369.46,716.24 369.09,715.35 368.72,714.46C367.27,711 365.64,707.59 364.14,704.21C363.334,702.438 362.62,700.626 362,698.78L361.81,699.05C361.506,699.51 361.235,699.991 361,700.49C361,708.36 353.12,717.99 353.12,717.99L345.19,706.44L338.25,717.11C337.25,717.64 336.25,719.46 335.47,722.05C335.25,722.75 335.04,723.51 334.84,724.32C334.7,724.86 334.57,725.43 334.45,726C334.38,726.29 334.32,726.58 334.26,726.88L334.08,727.79L334.08,727.93C333.96,728.55 333.84,729.19 333.73,729.84C333.62,730.49 333.49,731.24 333.38,731.95C333.3,732.41 333.23,732.87 333.17,733.33C333.03,734.22 332.91,735.12 332.79,736.01C332.72,736.53 332.65,737.01 332.59,737.56L332.35,739.56C332.86,741.2 333.43,742.82 334.02,744.41C334.397,745.281 334.617,746.212 334.67,747.16C346.94,750.666 359.95,750.666 372.22,747.16C372.216,747.127 372.216,747.093 372.22,747.06C372.035,746.162 371.955,745.246 371.98,744.33C372.182,741.765 372.516,739.211 372.98,736.68C373.128,735.432 373.191,734.176 373.17,732.92L373.17,732.47C373.14,732.09 373.13,731.73 373.12,731.37ZM373.12,731.37C373.12,730.97 373.12,730.57 373.05,730.17C372.98,729.77 372.99,729.42 372.94,729.04C372.89,728.66 372.85,728.28 372.8,727.9C372.75,727.52 372.68,727.14 372.61,726.76C372.54,726.38 372.47,726 372.39,725.62C372.39,725.49 372.34,725.37 372.31,725.24C372.2,724.74 372.08,724.24 371.95,723.73C371.82,723.22 371.74,722.92 371.62,722.52C371.62,722.34 371.52,722.16 371.46,721.99C371.4,721.82 371.29,721.41 371.2,721.12L371.02,720.56C370.94,720.31 370.86,720.06 370.77,719.81C370.62,719.36 370.46,718.92 370.3,718.47C370.14,718.02 369.97,717.58 369.8,717.14C369.46,716.24 369.09,715.35 368.72,714.46C367.27,711 365.64,707.59 364.14,704.21C363.334,702.438 362.62,700.626 362,698.78L361.81,699.05C361.506,699.51 361.235,699.991 361,700.49C361,708.36 353.12,717.99 353.12,717.99L345.19,706.44L338.25,717.11C337.25,717.64 336.25,719.46 335.47,722.05C335.25,722.75 335.04,723.51 334.84,724.32C334.7,724.86 334.57,725.43 334.45,726C334.38,726.29 334.32,726.58 334.26,726.88L334.08,727.79L334.08,727.93C333.96,728.55 333.84,729.19 333.73,729.84C333.62,730.49 333.49,731.24 333.38,731.95C333.3,732.41 333.23,732.87 333.17,733.33C333.03,734.22 332.91,735.12 332.79,736.01C332.72,736.53 332.65,737.01 332.59,737.56L332.35,739.56C332.86,741.2 333.43,742.82 334.02,744.41C334.397,745.281 334.617,746.212 334.67,747.16C346.94,750.666 359.95,750.666 372.22,747.16C372.216,747.127 372.216,747.093 372.22,747.06C372.035,746.162 371.955,745.246 371.98,744.33C372.182,741.765 372.516,739.211 372.98,736.68C373.128,735.432 373.191,734.176 373.17,732.92L373.17,732.47C373.14,732.09 373.13,731.73 373.12,731.37ZM383.72,712.6L380.15,698.35L379.54,695.91L379.37,695.24L378.5,691.76C378.502,691.73 378.502,691.7 378.5,691.67C378.521,691.516 378.496,691.36 378.43,691.22C378.3,690.96 377.97,690.69 377.2,690.62C376.907,690.599 376.613,690.599 376.32,690.62C375.451,690.706 374.591,690.867 373.75,691.1C373.34,691.21 372.9,691.33 372.43,691.48L371.57,691.75L371.49,691.75C369.187,692.506 367.049,693.694 365.19,695.25C363.962,696.274 362.885,697.465 361.99,698.79L361.8,699.06C361.496,699.52 361.225,700.001 360.99,700.5C360.99,708.37 353.11,718 353.11,718L345.18,706.45L344.73,705.8L344.65,705.69L343.5,704L342.63,702.84L342.4,702.54L338.3,697.07L337,695.3L337,695.24L336.55,694.63L335.69,693.49L332.69,695.24L325.19,699.61L321.73,722.12L321.73,722.36L321.83,724L322.57,736.53L322.57,737.24L321.44,741.75C324.46,743.379 327.603,744.77 330.84,745.91L331.69,746.21C332.69,746.54 333.63,746.84 334.61,747.13C334.646,747.278 334.673,747.428 334.69,747.58L334.69,747.15C346.96,750.656 359.97,750.656 372.24,747.15L372.47,747.08C373.04,746.92 373.62,746.75 374.18,746.56L375.09,746.27C377.558,745.445 379.975,744.476 382.33,743.37L383.16,725.49L383.76,712.72L383.72,712.6ZM334.54,747.13C334.576,747.278 334.603,747.428 334.62,747.58L334.62,747.15L334.54,747.13ZM373.12,731.37C373.12,730.97 373.12,730.57 373.05,730.17C372.98,729.77 372.99,729.42 372.94,729.04C372.89,728.66 372.85,728.28 372.8,727.9C372.75,727.52 372.68,727.14 372.61,726.76C372.54,726.38 372.47,726 372.39,725.62C372.39,725.49 372.34,725.37 372.31,725.24C372.2,724.74 372.08,724.24 371.95,723.73C371.82,723.22 371.74,722.92 371.62,722.52C371.62,722.34 371.52,722.16 371.46,721.99C371.4,721.82 371.29,721.41 371.2,721.12L371.02,720.56C370.94,720.31 370.86,720.06 370.77,719.81C370.62,719.36 370.46,718.92 370.3,718.47C370.14,718.02 369.97,717.58 369.8,717.14C369.46,716.24 369.09,715.35 368.72,714.46C367.27,711 365.64,707.59 364.14,704.21C363.334,702.438 362.62,700.626 362,698.78L361.81,699.05C361.506,699.51 361.235,699.991 361,700.49C361,708.36 353.12,717.99 353.12,717.99L345.19,706.44L338.25,717.11C337.25,717.64 336.25,719.46 335.47,722.05C335.25,722.75 335.04,723.51 334.84,724.32C334.7,724.86 334.57,725.43 334.45,726C334.38,726.29 334.32,726.58 334.26,726.88L334.08,727.79L334.08,727.93C333.96,728.55 333.84,729.19 333.73,729.84C333.62,730.49 333.49,731.24 333.38,731.95C333.3,732.41 333.23,732.87 333.17,733.33C333.03,734.22 332.91,735.12 332.79,736.01C332.72,736.53 332.65,737.01 332.59,737.56L332.35,739.56C332.86,741.2 333.43,742.82 334.02,744.41C334.397,745.281 334.617,746.212 334.67,747.16C346.94,750.666 359.95,750.666 372.22,747.16C372.216,747.127 372.216,747.093 372.22,747.06C372.035,746.162 371.955,745.246 371.98,744.33C372.182,741.765 372.516,739.211 372.98,736.68C373.128,735.432 373.191,734.176 373.17,732.92L373.17,732.47C373.14,732.09 373.13,731.73 373.12,731.37ZM373.12,731.37C373.12,730.97 373.12,730.57 373.05,730.17C372.98,729.77 372.99,729.42 372.94,729.04C372.89,728.66 372.85,728.28 372.8,727.9C372.75,727.52 372.68,727.14 372.61,726.76C372.54,726.38 372.47,726 372.39,725.62C372.39,725.49 372.34,725.37 372.31,725.24C372.2,724.74 372.08,724.24 371.95,723.73C371.82,723.22 371.74,722.92 371.62,722.52C371.62,722.34 371.52,722.16 371.46,721.99C371.4,721.82 371.29,721.41 371.2,721.12L371.02,720.56C370.94,720.31 370.86,720.06 370.77,719.81C370.62,719.36 370.46,718.92 370.3,718.47C370.14,718.02 369.97,717.58 369.8,717.14C369.46,716.24 369.09,715.35 368.72,714.46C367.27,711 365.64,707.59 364.14,704.21C363.334,702.438 362.62,700.626 362,698.78L361.81,699.05C361.506,699.51 361.235,699.991 361,700.49C361,708.36 353.12,717.99 353.12,717.99L345.19,706.44L338.25,717.11C337.25,717.64 336.25,719.46 335.47,722.05C335.25,722.75 335.04,723.51 334.84,724.32C334.7,724.86 334.57,725.43 334.45,726C334.38,726.29 334.32,726.58 334.26,726.88L334.08,727.79L334.08,727.93C333.96,728.55 333.84,729.19 333.73,729.84C333.62,730.49 333.49,731.24 333.38,731.95C333.3,732.41 333.23,732.87 333.17,733.33C333.03,734.22 332.91,735.12 332.79,736.01C332.72,736.53 332.65,737.01 332.59,737.56L332.35,739.56C332.86,741.2 333.43,742.82 334.02,744.41C334.397,745.281 334.617,746.212 334.67,747.16C346.94,750.666 359.95,750.666 372.22,747.16C372.216,747.127 372.216,747.093 372.22,747.06C372.035,746.162 371.955,745.246 371.98,744.33C372.182,741.765 372.516,739.211 372.98,736.68C373.128,735.432 373.191,734.176 373.17,732.92L373.17,732.47C373.14,732.09 373.13,731.73 373.12,731.37ZM373.12,731.37C373.12,730.97 373.12,730.57 373.05,730.17C372.98,729.77 372.99,729.42 372.94,729.04C372.89,728.66 372.85,728.28 372.8,727.9C372.75,727.52 372.68,727.14 372.61,726.76C372.54,726.38 372.47,726 372.39,725.62C372.39,725.49 372.34,725.37 372.31,725.24C372.2,724.74 372.08,724.24 371.95,723.73C371.82,723.22 371.74,722.92 371.62,722.52C371.62,722.34 371.52,722.16 371.46,721.99C371.4,721.82 371.29,721.41 371.2,721.12L371.02,720.56C370.94,720.31 370.86,720.06 370.77,719.81C370.62,719.36 370.46,718.92 370.3,718.47C370.14,718.02 369.97,717.58 369.8,717.14C369.46,716.24 369.09,715.35 368.72,714.46C367.27,711 365.64,707.59 364.14,704.21C363.334,702.438 362.62,700.626 362,698.78L361.81,699.05C361.506,699.51 361.235,699.991 361,700.49C361,708.36 353.12,717.99 353.12,717.99L345.19,706.44L338.25,717.11C337.25,717.64 336.25,719.46 335.47,722.05C335.25,722.75 335.04,723.51 334.84,724.32C334.7,724.86 334.57,725.43 334.45,726C334.38,726.29 334.32,726.58 334.26,726.88L334.08,727.79L334.08,727.93C333.96,728.55 333.84,729.19 333.73,729.84C333.62,730.49 333.49,731.24 333.38,731.95C333.3,732.41 333.23,732.87 333.17,733.33C333.03,734.22 332.91,735.12 332.79,736.01C332.72,736.53 332.65,737.01 332.59,737.56L332.35,739.56C332.86,741.2 333.43,742.82 334.02,744.41C334.397,745.281 334.617,746.212 334.67,747.16C346.94,750.666 359.95,750.666 372.22,747.16C372.216,747.127 372.216,747.093 372.22,747.06C372.035,746.162 371.955,745.246 371.98,744.33C372.182,741.765 372.516,739.211 372.98,736.68C373.128,735.432 373.191,734.176 373.17,732.92L373.17,732.47C373.14,732.09 373.13,731.73 373.12,731.37ZM373.12,731.37C373.12,730.97 373.12,730.57 373.05,730.17C372.98,729.77 372.99,729.42 372.94,729.04C372.89,728.66 372.85,728.28 372.8,727.9C372.75,727.52 372.68,727.14 372.61,726.76C372.54,726.38 372.47,726 372.39,725.62C372.39,725.49 372.34,725.37 372.31,725.24C372.2,724.74 372.08,724.24 371.95,723.73C371.82,723.22 371.74,722.92 371.62,722.52C371.62,722.34 371.52,722.16 371.46,721.99C371.4,721.82 371.29,721.41 371.2,721.12L371.02,720.56C370.94,720.31 370.86,720.06 370.77,719.81C370.62,719.36 370.46,718.92 370.3,718.47C370.14,718.02 369.97,717.58 369.8,717.14C369.46,716.24 369.09,715.35 368.72,714.46C367.27,711 365.64,707.59 364.14,704.21C363.334,702.438 362.62,700.626 362,698.78L361.81,699.05C361.506,699.51 361.235,699.991 361,700.49C361,708.36 353.12,717.99 353.12,717.99L345.19,706.44L338.25,717.11C337.25,717.64 336.25,719.46 335.47,722.05C335.25,722.75 335.04,723.51 334.84,724.32C334.7,724.86 334.57,725.43 334.45,726C334.38,726.29 334.32,726.58 334.26,726.88L334.08,727.79L334.08,727.93C333.96,728.55 333.84,729.19 333.73,729.84C333.62,730.49 333.49,731.24 333.38,731.95C333.3,732.41 333.23,732.87 333.17,733.33C333.03,734.22 332.91,735.12 332.79,736.01C332.72,736.53 332.65,737.01 332.59,737.56L332.35,739.56C332.86,741.2 333.43,742.82 334.02,744.41C334.397,745.281 334.617,746.212 334.67,747.16C346.94,750.666 359.95,750.666 372.22,747.16C372.216,747.127 372.216,747.093 372.22,747.06C372.035,746.162 371.955,745.246 371.98,744.33C372.182,741.765 372.516,739.211 372.98,736.68C373.128,735.432 373.191,734.176 373.17,732.92L373.17,732.47C373.14,732.09 373.13,731.73 373.12,731.37ZM373.12,731.37C373.12,730.97 373.12,730.57 373.05,730.17C372.98,729.77 372.99,729.42 372.94,729.04C372.89,728.66 372.85,728.28 372.8,727.9C372.75,727.52 372.68,727.14 372.61,726.76C372.54,726.38 372.47,726 372.39,725.62C372.39,725.49 372.34,725.37 372.31,725.24C372.2,724.74 372.08,724.24 371.95,723.73C371.82,723.22 371.74,722.92 371.62,722.52C371.62,722.34 371.52,722.16 371.46,721.99C371.4,721.82 371.29,721.41 371.2,721.12L371.02,720.56C370.94,720.31 370.86,720.06 370.77,719.81C370.62,719.36 370.46,718.92 370.3,718.47C370.14,718.02 369.97,717.58 369.8,717.14C369.46,716.24 369.09,715.35 368.72,714.46C367.27,711 365.64,707.59 364.14,704.21C363.334,702.438 362.62,700.626 362,698.78L361.81,699.05C361.506,699.51 361.235,699.991 361,700.49C361,708.36 353.12,717.99 353.12,717.99L345.19,706.44L338.25,717.11C337.25,717.64 336.25,719.46 335.47,722.05C335.25,722.75 335.04,723.51 334.84,724.32C334.7,724.86 334.57,725.43 334.45,726C334.38,726.29 334.32,726.58 334.26,726.88L334.08,727.79L334.08,727.93C333.96,728.55 333.84,729.19 333.73,729.84C333.62,730.49 333.49,731.24 333.38,731.95C333.3,732.41 333.23,732.87 333.17,733.33C333.03,734.22 332.91,735.12 332.79,736.01C332.72,736.53 332.65,737.01 332.59,737.56L332.35,739.56C332.86,741.2 333.43,742.82 334.02,744.41C334.397,745.281 334.617,746.212 334.67,747.16C346.94,750.666 359.95,750.666 372.22,747.16C372.216,747.127 372.216,747.093 372.22,747.06C372.035,746.162 371.955,745.246 371.98,744.33C372.182,741.765 372.516,739.211 372.98,736.68C373.128,735.432 373.191,734.176 373.17,732.92L373.17,732.47C373.14,732.09 373.13,731.73 373.12,731.37ZM373.12,731.37C373.12,730.97 373.12,730.57 373.05,730.17C372.98,729.77 372.99,729.42 372.94,729.04C372.89,728.66 372.85,728.28 372.8,727.9C372.75,727.52 372.68,727.14 372.61,726.76C372.54,726.38 372.47,726 372.39,725.62C372.39,725.49 372.34,725.37 372.31,725.24C372.2,724.74 372.08,724.24 371.95,723.73C371.82,723.22 371.74,722.92 371.62,722.52C371.62,722.34 371.52,722.16 371.46,721.99C371.4,721.82 371.29,721.41 371.2,721.12L371.02,720.56C370.94,720.31 370.86,720.06 370.77,719.81C370.62,719.36 370.46,718.92 370.3,718.47C370.14,718.02 369.97,717.58 369.8,717.14C369.46,716.24 369.09,715.35 368.72,714.46C367.27,711 365.64,707.59 364.14,704.21C363.334,702.438 362.62,700.626 362,698.78L361.81,699.05C361.506,699.51 361.235,699.991 361,700.49C361,708.36 353.12,717.99 353.12,717.99L345.19,706.44L338.25,717.11C337.25,717.64 336.25,719.46 335.47,722.05C335.25,722.75 335.04,723.51 334.84,724.32C334.7,724.86 334.57,725.43 334.45,726C334.38,726.29 334.32,726.58 334.26,726.88L334.08,727.79L334.08,727.93C333.96,728.55 333.84,729.19 333.73,729.84C333.62,730.49 333.49,731.24 333.38,731.95C333.3,732.41 333.23,732.87 333.17,733.33C333.03,734.22 332.91,735.12 332.79,736.01C332.72,736.53 332.65,737.01 332.59,737.56L332.35,739.56C332.86,741.2 333.43,742.82 334.02,744.41C334.397,745.281 334.617,746.212 334.67,747.16C346.94,750.666 359.95,750.666 372.22,747.16C372.216,747.127 372.216,747.093 372.22,747.06C372.035,746.162 371.955,745.246 371.98,744.33C372.182,741.765 372.516,739.211 372.98,736.68C373.128,735.432 373.191,734.176 373.17,732.92L373.17,732.47C373.14,732.09 373.13,731.73 373.12,731.37ZM373.12,731.37C373.12,730.97 373.12,730.57 373.05,730.17C372.98,729.77 372.99,729.42 372.94,729.04C372.89,728.66 372.85,728.28 372.8,727.9C372.75,727.52 372.68,727.14 372.61,726.76C372.54,726.38 372.47,726 372.39,725.62C372.39,725.49 372.34,725.37 372.31,725.24C372.2,724.74 372.08,724.24 371.95,723.73C371.82,723.22 371.74,722.92 371.62,722.52C371.62,722.34 371.52,722.16 371.46,721.99C371.4,721.82 371.29,721.41 371.2,721.12L371.02,720.56C370.94,720.31 370.86,720.06 370.77,719.81C370.62,719.36 370.46,718.92 370.3,718.47C370.14,718.02 369.97,717.58 369.8,717.14C369.46,716.24 369.09,715.35 368.72,714.46C367.27,711 365.64,707.59 364.14,704.21C363.334,702.438 362.62,700.626 362,698.78L361.81,699.05C361.506,699.51 361.235,699.991 361,700.49C361,708.36 353.12,717.99 353.12,717.99L345.19,706.44L338.25,717.11C337.25,717.64 336.25,719.46 335.47,722.05C335.25,722.75 335.04,723.51 334.84,724.32C334.7,724.86 334.57,725.43 334.45,726C334.38,726.29 334.32,726.58 334.26,726.88L334.08,727.79L334.08,727.93C333.96,728.55 333.84,729.19 333.73,729.84C333.62,730.49 333.49,731.24 333.38,731.95C333.3,732.41 333.23,732.87 333.17,733.33C333.03,734.22 332.91,735.12 332.79,736.01C332.72,736.53 332.65,737.01 332.59,737.56L332.35,739.56C332.86,741.2 333.43,742.82 334.02,744.41C334.397,745.281 334.617,746.212 334.67,747.16C346.94,750.666 359.95,750.666 372.22,747.16C372.216,747.127 372.216,747.093 372.22,747.06C372.035,746.162 371.955,745.246 371.98,744.33C372.182,741.765 372.516,739.211 372.98,736.68C373.128,735.432 373.191,734.176 373.17,732.92L373.17,732.47C373.14,732.09 373.13,731.73 373.12,731.37ZM373.12,731.37C373.12,730.97 373.12,730.57 373.05,730.17C372.98,729.77 372.99,729.42 372.94,729.04C372.89,728.66 372.85,728.28 372.8,727.9C372.75,727.52 372.68,727.14 372.61,726.76C372.54,726.38 372.47,726 372.39,725.62C372.39,725.49 372.34,725.37 372.31,725.24C372.2,724.74 372.08,724.24 371.95,723.73C371.82,723.22 371.74,722.92 371.62,722.52C371.62,722.34 371.52,722.16 371.46,721.99C371.4,721.82 371.29,721.41 371.2,721.12L371.02,720.56C370.94,720.31 370.86,720.06 370.77,719.81C370.62,719.36 370.46,718.92 370.3,718.47C370.14,718.02 369.97,717.58 369.8,717.14C369.46,716.24 369.09,715.35 368.72,714.46C367.27,711 365.64,707.59 364.14,704.21C363.334,702.438 362.62,700.626 362,698.78L361.81,699.05C361.506,699.51 361.235,699.991 361,700.49C361,708.36 353.12,717.99 353.12,717.99L345.19,706.44L338.25,717.11C337.25,717.64 336.25,719.46 335.47,722.05C335.25,722.75 335.04,723.51 334.84,724.32C334.7,724.86 334.57,725.43 334.45,726C334.38,726.29 334.32,726.58 334.26,726.88L334.08,727.79L334.08,727.93C333.96,728.55 333.84,729.19 333.73,729.84C333.62,730.49 333.49,731.24 333.38,731.95C333.3,732.41 333.23,732.87 333.17,733.33C333.03,734.22 332.91,735.12 332.79,736.01C332.72,736.53 332.65,737.01 332.59,737.56L332.35,739.56C332.86,741.2 333.43,742.82 334.02,744.41C334.397,745.281 334.617,746.212 334.67,747.16C346.94,750.666 359.95,750.666 372.22,747.16C372.216,747.127 372.216,747.093 372.22,747.06C372.035,746.162 371.955,745.246 371.98,744.33C372.182,741.765 372.516,739.211 372.98,736.68C373.128,735.432 373.191,734.176 373.17,732.92L373.17,732.47C373.14,732.09 373.13,731.73 373.12,731.37Z" style="fill:rgb(68,65,118);fill-rule:nonzero;"/>
        </g>
        <g transform="matrix(1,0,0,1,-43.2,-23.86)">
            <path d="M345.33,705.77L344.66,705.68C343.648,705.543 342.646,705.343 341.66,705.08L341.29,704.98C338.85,704.29 336.18,703.05 335.58,700.87C335.401,700.168 335.422,699.431 335.64,698.74C335.976,697.55 336.431,696.398 337,695.3L337,695.24C337.075,695.086 337.159,694.935 337.25,694.79C338.075,693.177 339.323,691.819 340.86,690.86L339.66,691.05L329.5,692.7L313.75,695.24C313.75,695.24 310.95,694.68 307.14,705.18C307.14,705.31 307.05,705.43 307.01,705.57C306.09,708.14 305.12,711.35 304.12,715.36C303.43,718.14 302.8,720.87 302.22,723.52C302.05,724.32 301.88,725.11 301.72,725.89C303.523,728.015 305.464,730.02 307.53,731.89L307.86,732.2C311.907,735.865 316.379,739.031 321.18,741.63L321.37,741.73C324.39,743.359 327.533,744.75 330.77,745.89L331.62,746.19C331.8,744.34 332,742.29 332.24,740.19C332.24,739.98 332.24,739.77 332.32,739.56L332.56,737.56C332.62,737.05 332.69,736.56 332.76,736.01C332.88,735.12 333,734.22 333.14,733.33C333.2,732.87 333.27,732.41 333.35,731.95C333.46,731.24 333.58,730.53 333.7,729.84C333.82,729.15 333.93,728.55 334.05,727.93L334.05,727.79L334.23,726.88C334.29,726.58 334.35,726.29 334.42,726C334.54,725.43 334.67,724.86 334.81,724.32C335.01,723.51 335.22,722.75 335.44,722.05C336.24,719.46 337.17,717.64 338.22,717.11L345.16,706.44L345.45,705.99L345.58,705.79L345.33,705.77Z" style="fill-opacity:0.1;fill-rule:nonzero;"/>
        </g>
        <g transform="matrix(1,0,0,1,-43.2,-23.86)">
            <path d="M344.74,705.79L337.37,717.11C336.37,717.62 335.43,719.39 334.64,721.9C334.41,722.64 334.18,723.45 333.96,724.3C332.965,728.618 332.21,732.988 331.7,737.39C331.7,737.59 331.7,737.79 331.62,737.99C331.28,740.77 331,743.5 330.77,745.91C327.533,744.77 324.39,743.379 321.37,741.75L321.18,741.65C316.379,739.051 311.907,735.885 307.86,732.22L307.53,731.91C305.464,730.04 303.523,728.035 301.72,725.91C301.48,725.64 301.25,725.36 301.02,725.08C301.13,724.56 301.24,724.08 301.36,723.52C301.93,720.87 302.56,718.15 303.25,715.38C304.16,711.583 305.296,707.843 306.65,704.18C306.687,704.071 306.731,703.964 306.78,703.86C310.32,694.75 312.87,695.26 312.87,695.26L329.5,692.58L340,690.88L339.67,691.07C338.511,691.893 337.528,692.941 336.78,694.15L336.49,694.64C336.37,694.83 336.26,695.04 336.14,695.25C335.557,696.364 335.094,697.538 334.76,698.75C334.45,699.696 334.536,700.729 335,701.61C336,703.55 338.84,704.61 341.17,705.19L341.56,705.29C342.608,705.525 343.67,705.692 344.74,705.79Z" style="fill:rgb(241,210,215);fill-rule:nonzero;"/>
        </g>
        <g transform="matrix(1,0,0,1,-43.2,-23.86)">
            <path d="M402.53,726L402.12,717.12C403.87,703.12 400.37,702.25 400.37,702.25L396.21,700.25L396.1,700.25L379.37,692.14L378.72,691.82L378.52,691.73L376.34,690.67L374.96,690L372.38,688.75L371.51,688.33L371.51,691.8C371.51,692.8 371.6,693.97 371.68,695.33C371.86,698.75 372.19,703.33 372.78,708.73C373.11,711.86 373.53,715.28 374.05,718.95C374.36,721.12 374.58,723.28 374.72,725.39C375.17,732.495 374.949,739.626 374.06,746.69L374.97,746.4C377.438,745.575 379.855,744.606 382.21,743.5C386.798,741.36 391.126,738.703 395.11,735.58L395.29,735.45C397.868,733.434 400.295,731.232 402.55,728.86L402.53,726Z" style="fill-opacity:0.1;fill-rule:nonzero;"/>
        </g>
        <g transform="matrix(1,0,0,1,-43.2,-23.86)">
            <path d="M403.41,726L403,717.1C404.75,703.1 401.25,702.23 401.25,702.23L396.25,699.81L396.15,699.81L379.37,691.67L378.6,691.3L378.45,691.23L377.22,690.63L375.59,689.84L372.37,688.28L372.37,691.46C372.37,692.46 372.46,693.77 372.55,695.26C372.72,698.45 373.02,702.63 373.55,707.6C373.91,711.01 374.36,714.8 374.95,718.88C375.257,721.06 375.477,723.217 375.61,725.35C376.055,732.354 375.847,739.384 374.99,746.35C377.458,745.525 379.875,744.556 382.23,743.45C386.818,741.31 391.146,738.653 395.13,735.53L395.31,735.4C397.888,733.384 400.315,731.182 402.57,728.81C402.863,728.517 403.143,728.217 403.41,727.91L403.41,726Z" style="fill:rgb(241,210,215);fill-rule:nonzero;"/>
        </g>
        <g transform="matrix(1,0,0,1,-43.2,-23.86)">
            <path d="M347,652.53C350.12,652 353.26,650.86 356.36,651.53C358.96,652.07 361.13,653.8 363.51,655C365.808,656.156 368.321,656.82 370.89,656.95C371.827,657.073 372.779,656.887 373.6,656.42C374.84,655.56 375.02,653.8 374.81,652.3C374.21,648.04 371.55,644.38 368.81,641.06C367.716,639.642 366.454,638.362 365.05,637.25C361.46,634.6 356.71,634.15 352.26,634.35C347.18,634.58 342.02,635.56 337.61,638.11C334.61,639.83 327.73,645.25 330.12,649.17C332.63,653.27 343.07,653.2 347,652.53Z" style="fill-opacity:0.1;fill-rule:nonzero;"/>
        </g>
        <g transform="matrix(1,0,0,1,-43.2,-23.86)">
            <path d="M347,651.53C350.12,651 353.26,649.86 356.36,650.53C358.96,651.07 361.13,652.8 363.51,654C365.808,655.156 368.321,655.82 370.89,655.95C371.827,656.073 372.779,655.887 373.6,655.42C374.84,654.56 375.02,652.8 374.81,651.3C374.21,647.04 371.55,643.38 368.81,640.06C367.716,638.642 366.454,637.362 365.05,636.25C361.46,633.6 356.71,633.15 352.26,633.35C347.18,633.58 342.02,634.56 337.61,637.11C334.61,638.83 327.73,644.25 330.12,648.17C332.63,652.27 343.07,652.2 347,651.53Z" style="fill:rgb(68,65,118);fill-rule:nonzero;"/>
        </g>
    </g>
    <g transform="matrix(1,0,0,1,-43.2,-23.86)">
        <path d="M702.67,810.51C702.67,810.51 699.48,824.85 694.67,830.42C689.86,835.99 683.56,847.15 678,846.35C672.44,845.55 670.83,857.5 681.19,859.09C691.55,860.68 713,855.91 713,855.91C713,855.91 731.32,847.91 732.11,842.37C732.9,836.83 727.33,808.12 727.33,808.12L702.67,810.51Z" style="fill:rgb(83,82,107);fill-rule:nonzero;"/>
    </g>
    <g transform="matrix(1,0,0,1,-43.2,-23.86)">
        <path d="M702.67,810.51C702.67,810.51 699.48,824.85 694.67,830.42C689.86,835.99 683.56,847.15 678,846.35C672.44,845.55 670.83,857.5 681.19,859.09C691.55,860.68 713,855.91 713,855.91C713,855.91 731.32,847.91 732.11,842.37C732.9,836.83 727.33,808.12 727.33,808.12L702.67,810.51Z" style="fill-opacity:0.05;fill-rule:nonzero;"/>
    </g>
    <g transform="matrix(1,0,0,1,-43.2,-23.86)">
        <path d="M732.14,816.88C732.14,816.88 728.95,831.22 724.14,836.79C719.33,842.36 713,853.52 707.45,852.72C701.9,851.92 700.28,863.87 710.64,865.46C721,867.05 742.5,862.27 742.5,862.27C742.5,862.27 760.82,854.27 761.61,848.73C762.4,843.19 756.83,814.48 756.83,814.48L732.14,816.88Z" style="fill:rgb(83,82,107);fill-rule:nonzero;"/>
    </g>
    <g transform="matrix(1,0,0,1,-43.2,-23.86)">
        <path d="M659.66,598.67C659.66,598.67 666.03,667.16 670.81,674.33C675.59,681.5 681.16,712.56 681.16,712.56L691.51,776.27C691.51,776.27 695.51,812.91 697.88,816.89C700.25,820.87 729.81,819.16 729.81,819.16L711.43,608.22L659.66,598.67Z" style="fill:rgb(95,93,126);fill-rule:nonzero;"/>
    </g>
    <g transform="matrix(1,0,0,1,-43.2,-23.86)">
        <path d="M659.66,598.67C659.66,598.67 666.03,667.16 670.81,674.33C675.59,681.5 681.16,712.56 681.16,712.56L691.51,776.27C691.51,776.27 695.51,812.91 697.88,816.89C700.25,820.87 729.81,819.16 729.81,819.16L711.43,608.22L659.66,598.67Z" style="fill-opacity:0.05;fill-rule:nonzero;"/>
    </g>
    <g transform="matrix(1,0,0,1,-43.2,-23.86)">
        <path d="M646.92,566L649,572.61L660.25,608.32L660.47,609L660.53,609C662.04,609.34 693.92,616.67 700.8,618.92C701.171,619.035 701.535,619.172 701.89,619.33C705.08,620.92 709.06,678.26 709.06,678.26C709.06,678.26 711.45,732.42 713.06,736.4C714.67,740.38 721.06,822.4 725.01,820.02C728.96,817.64 757.66,820.02 757.66,820.02C760.85,816.83 757.66,773.83 757.66,773.83L752,695C752,695 755.19,651.2 752,643.23C748.81,635.26 748.81,581.91 748.81,581.91L683.62,571.72L677.32,570.72L646.92,566Z" style="fill:rgb(95,93,126);fill-rule:nonzero;"/>
    </g>
    <g transform="matrix(1,0,0,1,-43.2,-23.86)">
        <path d="M649,572.62L660.25,608.33L660.52,609.03C662.03,609.37 693.91,616.7 700.79,618.95L701.48,618.95L683.67,571.73L683.16,570.37L677.37,570.74L649,572.62Z" style="fill-opacity:0.02;fill-rule:nonzero;"/>
    </g>
    <g transform="matrix(1,0,0,1,-43.2,-23.86)">
        <path d="M723.38,406.73C723.38,406.73 693.91,438.59 675.59,412.3L658.07,424.25L661.26,442.57L650.9,581.14C650.9,581.14 677.98,580.34 697.09,586.71C707.938,590.558 720.087,587.754 728.15,579.54L725,457.7L732.17,420.27L723.38,406.73Z" style="fill-opacity:0.1;fill-rule:nonzero;"/>
    </g>
    <g transform="matrix(1,0,0,1,-43.2,-23.86)">
        <path d="M723.38,404.34C723.38,404.34 693.91,436.2 675.59,409.91L658.07,421.86L661.26,440.18L650.9,578.75C650.9,578.75 677.98,577.95 697.09,584.32C707.938,588.168 720.087,585.364 728.15,577.15L725,455.31L732.17,417.88L723.38,404.34Z" style="fill:rgb(83,82,107);fill-rule:nonzero;"/>
    </g>
    <g id="b7475575-9269-4b4a-a721-bb0a166a2f3e">
        <g id="_5bdc843c-f8f1-42c9-9268-9744bdec504e" serif:id="5bdc843c-f8f1-42c9-9268-9744bdec504e">
            <path id="_6bc746a9-2d5c-4457-b327-3c896c91b9d0" serif:id="6bc746a9-2d5c-4457-b327-3c896c91b9d0" d="M621.35,522.36L621.35,527.38L619.75,527.38L619.75,524.04L613.9,524.04L613.9,527.38L612.29,527.38L612.29,522.37L621.35,522.36" style="fill:rgb(232,33,39);fill-rule:nonzero;"/>
            <g id="d39c551f-7962-48ac-bd52-1b7ff04213b0" transform="matrix(1,0,0,1,-43.2,-23.86)">
                <path d="M663.12,544.6L656.94,544.6C656.116,544.403 655.467,543.762 655.26,542.94L664.79,542.94C664.581,543.761 663.933,544.401 663.11,544.6" style="fill:rgb(232,33,39);fill-rule:nonzero;"/>
            </g>
        </g>
        <g id="a3b10f10-7568-4e16-9739-cab30d2da761" transform="matrix(1,0,0,1,-43.2,-23.86)">
            <path d="M719,543C718.785,543.812 718.144,544.445 717.33,544.65L714.73,544.65L714.6,544.7L714.6,551.26L713,551.26L713,544.7L712.85,544.65L710.25,544.65C709.439,544.439 708.8,543.809 708.58,543L719,543" style="fill:rgb(232,33,39);fill-rule:nonzero;"/>
        </g>
    </g>
    <g transform="matrix(1,0,0,1,-43.2,-23.86)">
        <path d="M662.05,569.2C662.05,569.2 662.05,589.91 657.27,598.67C652.49,607.43 624.62,602.67 624.62,602.67L630.19,573.2L662.05,569.2Z" style="fill:rgb(214,219,230);fill-rule:nonzero;"/>
    </g>
    <g transform="matrix(1,0,0,1,-43.2,-23.86)">
        <path d="M627.65,617C631.85,621 649.26,613 648.06,608.24C647.22,604.87 644.28,592.81 642.61,585.97L641.45,581.16C641.45,581.16 631.25,577.97 627.65,581.16C626.34,582.32 625.42,586.89 624.99,592.41C624.25,602 625,614.46 627.65,617Z" style="fill:rgb(253,194,204);fill-rule:nonzero;"/>
    </g>
    <g transform="matrix(1,0,0,1,-43.2,-23.86)">
        <path d="M666,418.67L693.87,440.17C693.87,440.17 735.28,437.78 724.93,417.87C720.423,409.114 717.704,399.548 716.93,389.73C716.593,386.108 716.593,382.462 716.93,378.84C717.267,375.218 678.7,343.84 683.48,383.62C683.857,386.673 684.077,389.744 684.14,392.82C684.71,422.68 666,418.67 666,418.67Z" style="fill:rgb(253,194,204);fill-rule:nonzero;"/>
    </g>
    <g transform="matrix(1,0,0,1,-43.2,-23.86)">
        <path d="M683.56,383.63C683.937,386.683 684.157,389.754 684.22,392.83C688.51,395.671 693.545,397.181 698.69,397.17C705.82,397.17 711.07,390.23 715.81,385.62C715.28,379.01 717,378.85 717,378.85C717,378.85 678.78,343.81 683.56,383.63Z" style="fill-opacity:0.1;fill-rule:nonzero;"/>
    </g>
    <circle cx="655.49" cy="345.44" r="26.28" style="fill:rgb(253,194,204);"/>
    <g transform="matrix(1,0,0,1,-43.2,-23.86)">
        <path d="M717.4,394.38C717.4,394.38 721.78,394.78 730.54,406.72C739.3,418.66 758.41,420.26 758.41,420.26C758.41,420.26 765.58,417.07 773.54,452.91C781.5,488.75 783.89,512.64 779.91,516.62C775.93,520.6 760,526.19 752,526.19C752,526.19 749.61,576.36 753.59,585.12C757.57,593.88 752.79,599.46 752.79,599.46L717.79,597.07C717.79,597.07 705.84,581.94 703.45,555.66C701.06,529.38 693.1,454.51 697.08,445.75C701.06,436.99 718.58,414.69 717.79,412.3C717,409.91 717.4,394.38 717.4,394.38Z" style="fill-opacity:0.1;fill-rule:nonzero;"/>
    </g>
    <g transform="matrix(1,0,0,1,-43.2,-23.86)">
        <path d="M717.49,394.14C717.49,394.14 723.38,393.98 732.14,405.93C740.9,417.88 760,419.47 760,419.47C760,419.47 767.17,416.28 775.13,452.12C783.09,487.96 785.48,511.85 781.5,515.83C777.52,519.81 761.59,525.39 753.63,525.39C753.63,525.39 751.24,575.56 755.22,584.32C759.2,593.08 754.42,598.66 754.42,598.66L719.42,596.27C719.42,596.27 707.47,581.14 705.08,554.86C702.69,528.58 694.71,453.72 698.69,445C702.67,436.28 720.19,413.94 719.4,411.55C718.61,409.16 717.49,394.14 717.49,394.14Z" style="fill:rgb(214,219,230);fill-rule:nonzero;"/>
    </g>
    <g transform="matrix(1,0,0,1,-43.2,-23.86)">
        <path d="M625,592.4C628.81,589.49 636,584.96 642.62,585.96L641.46,581.15C641.46,581.15 631.26,577.96 627.66,581.15C626.33,582.31 625.42,586.87 625,592.4Z" style="fill-opacity:0.1;fill-rule:nonzero;"/>
    </g>
    <g transform="matrix(1,0,0,1,-43.2,-23.86)">
        <path d="M684,399.16C684,399.16 663.69,412.3 661.3,417.88C658.91,423.46 650.15,427.44 650.15,427.44C650.15,427.44 633.43,436.2 633.43,467.26L624.67,511.06L664.49,566.81C664.49,566.81 669.27,511.06 671.66,497.52C674.05,483.98 677.23,458.52 677.23,458.52C677.23,458.52 689.18,443.39 687.58,439.41C685.98,435.43 684,399.16 684,399.16Z" style="fill-opacity:0.1;fill-rule:nonzero;"/>
    </g>
    <g transform="matrix(1,0,0,1,-43.2,-23.86)">
        <path d="M684,398.92C684,398.92 662.82,410.71 660.44,416.28C658.06,421.85 649.29,425.84 649.29,425.84C649.29,425.84 632.57,434.6 632.57,465.66L623.81,509.46L622.22,593.08C622.22,593.08 636.56,579.54 646.91,585.91C657.26,592.28 663.63,565.2 663.63,565.2C663.63,565.2 668.41,509.45 670.8,495.91C673.19,482.37 676.37,456.91 676.37,456.91C676.37,456.91 688.32,441.78 686.72,437.8C685.12,433.82 684,398.92 684,398.92Z" style="fill:rgb(214,219,230);fill-rule:nonzero;"/>
    </g>
    <g transform="matrix(1,0,0,1,-43.2,-23.86)">
        <path d="M675.62,337.33C676.968,335.615 678.527,334.076 680.26,332.75C683,330.47 686.03,328.09 689.43,328.29C691.353,328.546 693.201,329.207 694.85,330.23C703.317,334.69 711.76,339.197 720.18,343.75C723.29,345.43 726.5,347.21 728.67,350.23C730.84,353.25 731.72,357.13 732.33,360.93C732.84,363.504 732.962,366.14 732.69,368.75C732.442,371.308 731.199,373.669 729.23,375.32C726.96,376.97 723.85,376.98 721.95,379.14C720.85,380.39 720.37,382.14 719.59,383.66C718.81,385.18 717.46,386.66 715.92,386.39C714.38,386.12 713.45,384.49 713.23,382.84C713.132,381.168 713.229,379.49 713.52,377.84C713.82,374.84 713.44,371.66 711.7,369.43C710.5,367.91 708.78,366.99 707.62,365.43C704.84,361.67 706.11,355.43 703.06,351.9C701.259,350.024 698.58,349.258 696.06,349.9C693.59,350.42 691.33,351.76 689.06,352.9C685.993,354.447 682.781,355.686 679.47,356.6C676.69,357.36 673.47,359.18 672.52,355.48C671.07,350.05 672.42,341.74 675.62,337.33Z" style="fill-opacity:0.1;fill-rule:nonzero;"/>
    </g>
    <g transform="matrix(1,0,0,1,-43.2,-23.86)">
        <path d="M676.42,336.54C677.768,334.825 679.327,333.286 681.06,331.96C683.8,329.68 686.83,327.3 690.23,327.5C692.153,327.756 694.001,328.417 695.65,329.44C704.11,333.9 711.14,329.68 720.98,342.96C723.08,345.8 727.3,346.42 729.47,349.44C731.64,352.46 732.52,356.34 733.13,360.14C733.64,362.714 733.762,365.35 733.49,367.96C733.242,370.518 731.999,372.879 730.03,374.53C727.76,376.18 724.65,376.19 722.75,378.35C721.65,379.6 721.17,381.35 720.39,382.87C719.61,384.39 718.26,385.87 716.72,385.6C715.18,385.33 714.25,383.7 714.03,382.05C713.932,380.378 714.029,378.7 714.32,377.05C714.62,374.05 714.24,370.87 712.5,368.64C711.3,367.12 709.58,366.2 708.42,364.64C705.64,360.88 706.91,354.64 703.86,351.11C702.059,349.234 699.38,348.468 696.86,349.11C694.39,349.63 692.13,350.97 689.86,352.11C686.793,353.657 683.581,354.896 680.27,355.81C677.49,356.57 674.27,358.39 673.32,354.69C671.86,349.26 673.22,340.94 676.42,336.54Z" style="fill:rgb(134,90,97);fill-rule:nonzero;"/>
    </g>
    <g transform="matrix(1,0,0,1,-43.2,-23.86)">
        <path d="M748.2,458.09C748.2,458.09 758.82,485.17 750.85,496.32L740.66,502.336C740.66,502.336 749.26,497.1 746.87,487.54C744.48,477.98 748.2,458.09 748.2,458.09Z" style="fill-opacity:0.1;fill-rule:nonzero;"/>
    </g>
    <g transform="matrix(1,0,0,1,-43.2,-23.86)">
        <path d="M754,525C754,525 730.9,526.59 724.53,521.81C732.918,528.213 742.825,532.331 753.28,533.76L754,525Z" style="fill-opacity:0.1;fill-rule:nonzero;"/>
    </g>
    <g transform="matrix(1,0,0,1,-43.2,-23.86)">
        <path d="M654.49,474C654.49,474 642.54,510.64 643.34,516.21C644.14,521.78 645.73,583.11 645.73,583.11L648.12,582.31L647.32,515.41L654.49,474Z" style="fill-opacity:0.1;fill-rule:nonzero;"/>
    </g>
    <g transform="matrix(1,0,0,1,-43.2,-23.86)">
        <path d="M758.81,516.78L485.81,296.78C482.602,293.574 478.246,291.773 473.71,291.78L462.11,291.78C482.403,265.775 493.431,233.717 493.431,200.731C493.431,119.54 426.621,52.731 345.431,52.731C264.24,52.731 197.431,119.54 197.431,200.731C197.431,281.921 264.24,348.731 345.431,348.731C378.417,348.731 410.475,337.703 436.48,317.41L436.48,329C436.473,333.536 438.274,337.892 441.48,341.1L714.48,561.1C717.671,564.317 722.019,566.129 726.55,566.129C731.081,566.129 735.429,564.317 738.62,561.1L758.74,541C765.379,534.365 765.411,523.453 758.81,516.78ZM345.34,291.78C295.342,291.78 254.2,250.638 254.2,200.64C254.2,150.642 295.342,109.5 345.34,109.5C395.338,109.5 436.48,150.642 436.48,200.64C436.48,200.663 436.48,200.687 436.48,200.71C436.48,250.681 395.361,291.8 345.39,291.8C345.373,291.8 345.357,291.8 345.34,291.8L345.34,291.78Z" style="fill:rgb(209,0,33);fill-rule:nonzero;"/>
    </g>
    <g transform="matrix(0.258154,-0.966104,0.966104,0.258154,22.3499,1067.09)">
        <path d="M738.51,496.72C738.51,496.72 698.66,451.02 704.26,482.38C708.26,504.68 723.37,516.63 730.54,519.02C737.71,521.41 738.51,496.72 738.51,496.72Z" style="fill:rgb(253,194,204);fill-rule:nonzero;"/>
    </g>
    <g transform="matrix(1,0,0,1,-43.2,-23.86)">
        <path d="M748.07,454.51C748.07,454.51 748.87,483.98 752.85,487.96C756.83,491.94 750.46,496.72 750.46,496.72L729.754,508.465C729.754,508.465 749.336,531.253 738.314,531.692C737.53,531.723 747.051,528.208 745.94,527.997C745.94,527.997 732.94,526.17 744.09,527.77C755.24,529.37 763.74,518.31 763.74,518.31L771.16,505.47L748.07,454.51Z" style="fill:rgb(214,219,230);fill-rule:nonzero;"/>
    </g>
    <path d="M709.28,501.95L725.44,498.4L723.28,490.95L713.28,486.95L700.28,492.95L709.28,501.95Z" style="fill:rgb(214,219,230);fill-rule:nonzero;"/>
    <g transform="matrix(1,0,0,1,-43.2,-23.86)">
        <path d="M280.78,199.8C280.755,214.505 285.524,228.825 294.36,240.58C295.25,241.77 296.18,242.92 297.15,244.05C297.67,244.66 298.21,245.26 298.76,245.85C299.033,246.157 299.313,246.457 299.6,246.75C301.855,249.122 304.282,251.324 306.86,253.34L307.04,253.47C311.024,256.593 315.352,259.25 319.94,261.39C322.295,262.496 324.712,263.465 327.18,264.29L328.09,264.58C328.65,264.77 329.23,264.94 329.8,265.1L330.03,265.17C330.32,265.25 330.61,265.34 330.91,265.41C336.721,266.989 342.718,267.786 348.74,267.78C349.74,267.78 350.79,267.78 351.81,267.71C357.151,267.48 362.445,266.614 367.58,265.13L367.68,265.13C368.63,264.85 369.57,264.56 370.5,264.24L370.6,264.24L371.45,263.94C374.687,262.8 377.83,261.409 380.85,259.78L381.04,259.68C381.37,259.5 381.7,259.32 382.04,259.13C386.473,256.642 390.612,253.663 394.38,250.25L394.71,249.94C396.776,248.07 398.717,246.065 400.52,243.94L400.73,243.69C400.9,243.5 401.06,243.31 401.22,243.11C401.66,242.59 402.08,242.05 402.5,241.51C411.754,229.586 416.78,214.913 416.78,199.819C416.78,162.515 386.084,131.819 348.78,131.819C311.483,131.819 280.79,162.503 280.78,199.8Z" style="fill:rgb(192,188,207);fill-rule:nonzero;"/>
    </g>
    <g transform="matrix(1,0,0,1,-43.2,-23.86)">
        <path d="M304.31,221.67C304.31,221.67 319.06,220.42 325.82,211.04C332.41,201.91 336.89,201.8 337.11,201.8C337.28,200.58 337.4,199.42 337.48,198.34L337.48,198.19C337.21,198.404 336.89,198.546 336.55,198.6C335.23,198.8 334.07,197.55 333.41,196.22C332.903,194.832 332.231,193.509 331.41,192.28C329.78,190.4 327.11,190.39 325.17,188.96C323.464,187.517 322.387,185.464 322.17,183.24C322.064,182.411 322.024,181.575 322.05,180.74C322.018,178.954 322.158,177.169 322.47,175.41C322.99,172.1 323.76,168.71 325.61,166.1C327.46,163.49 331.08,162.93 332.88,160.46C341.31,148.9 347.32,152.57 354.57,148.69C355.978,147.801 357.56,147.224 359.21,147C362.12,146.83 364.72,148.91 367.06,150.89C368.557,152.049 369.901,153.393 371.06,154.89C373.15,157.82 374.32,162.73 374.22,167.03C374.276,168.627 374.121,170.224 373.76,171.78C373.18,174.08 371.61,173.93 369.89,173.41C374.262,182.616 371.249,193.747 362.83,199.49L362.83,200.54C362.825,200.617 362.825,200.693 362.83,200.77C362.803,202.365 362.856,203.96 362.99,205.55C363.16,205.64 379.33,214.81 381.16,219.16C382.99,223.51 389.77,226.66 389.77,226.66C389.77,226.66 397.22,230.66 400.77,243.22L400.56,243.47C398.76,245.635 396.819,247.68 394.75,249.59L394.42,249.91C390.658,253.365 386.519,256.384 382.08,258.91C381.76,259.1 381.43,259.29 381.08,259.47L380.89,259.57C377.873,261.225 374.73,262.64 371.49,263.8L370.64,264.11L370.54,264.11C369.61,264.44 368.67,264.73 367.72,265.01L367.62,265.01C362.488,266.517 357.193,267.397 351.85,267.63C350.85,267.68 349.85,267.7 348.78,267.7C342.776,267.734 336.796,266.957 331,265.39C330.7,265.32 330.41,265.23 330.12,265.15L329.89,265.08C329.32,264.92 328.74,264.74 328.18,264.55L327.27,264.26C324.79,263.418 322.363,262.429 320,261.3C315.405,259.12 311.077,256.419 307.1,253.25L306.92,253.12C304.339,251.068 301.912,248.829 299.66,246.42C299.373,246.127 299.093,245.82 298.82,245.5C298.27,244.9 297.73,244.29 297.21,243.67C296.21,242.52 295.31,241.35 294.42,240.14C299.77,219.61 304.31,221.67 304.31,221.67Z" style="fill:url(#_Linear1);fill-rule:nonzero;"/>
    </g>
    <g transform="matrix(1,0,0,1,-43.2,-23.86)">
        <path d="M355.31,238.41L376.82,221.82C376.82,221.82 362.41,224.91 362.82,201.88C362.815,201.803 362.815,201.727 362.82,201.65C362.82,199.57 363.02,197.29 363.32,194.78C367.01,164.05 337.51,191.09 337.51,191.09C337.764,193.811 337.764,196.549 337.51,199.27L337.51,199.49C336.927,207.063 334.839,214.443 331.37,221.2C323.36,236.56 355.31,238.41 355.31,238.41Z" style="fill:rgb(253,194,204);fill-rule:nonzero;"/>
    </g>
    <g transform="matrix(1,0,0,1,-43.2,-23.86)">
        <path d="M340.26,195C343.91,198.55 346.14,205 351.63,205C355.602,205.009 359.489,203.843 362.8,201.65C362.8,199.57 363,197.29 363.3,194.78C366.99,164.05 337.49,191.09 337.49,191.09C337.49,191.09 340.65,190 340.26,195Z" style="fill-opacity:0.1;fill-rule:nonzero;"/>
    </g>
    <circle cx="308.43" cy="159.86" r="20.28" style="fill:rgb(253,194,204);"/>
    <g transform="matrix(1,0,0,1,-43.2,-23.86)">
        <path d="M371.08,157.75C369.917,156.28 368.573,154.963 367.08,153.83C364.74,151.88 362.14,149.83 359.23,150.01C357.583,150.229 356.002,150.795 354.59,151.67C347.34,155.49 341.33,151.88 332.9,163.24C331.1,165.67 327.49,166.24 325.63,168.79C323.77,171.34 323.02,174.69 322.49,177.95C322.052,180.155 321.947,182.414 322.18,184.65C322.402,186.844 323.481,188.864 325.18,190.27C327.12,191.68 329.79,191.69 331.42,193.54C332.24,194.745 332.911,196.044 333.42,197.41C334.08,198.71 335.24,199.94 336.56,199.75C337.88,199.56 338.67,198.13 338.86,196.75C338.943,195.322 338.859,193.889 338.61,192.48C338.36,189.95 338.68,187.19 340.17,185.28C341.17,183.97 342.67,183.19 343.66,181.86C346.04,178.65 344.96,173.26 347.57,170.28C349.122,168.686 351.418,168.047 353.57,168.61C355.672,169.21 357.689,170.077 359.57,171.19C362.195,172.515 364.945,173.577 367.78,174.36C370.16,175.01 372.92,176.57 373.73,173.36C375,168.64 373.81,161.52 371.08,157.75Z" style="fill-opacity:0.1;fill-rule:nonzero;"/>
    </g>
    <g transform="matrix(1,0,0,1,-43.2,-23.86)">
        <path d="M371.08,156.75C369.917,155.28 368.573,153.963 367.08,152.83C364.74,150.88 362.14,148.83 359.23,149.01C357.583,149.229 356.002,149.795 354.59,150.67C347.34,154.49 341.33,150.88 332.9,162.24C331.1,164.67 327.49,165.24 325.63,167.79C323.77,170.34 323.02,173.69 322.49,176.95C322.052,179.155 321.947,181.414 322.18,183.65C322.402,185.844 323.481,187.864 325.18,189.27C327.12,190.68 329.79,190.69 331.42,192.54C332.24,193.745 332.911,195.044 333.42,196.41C334.08,197.71 335.24,198.94 336.56,198.75C337.88,198.56 338.67,197.13 338.86,195.75C338.943,194.322 338.859,192.889 338.61,191.48C338.36,188.95 338.68,186.19 340.17,184.28C341.17,182.97 342.67,182.19 343.66,180.86C346.04,177.65 344.96,172.26 347.57,169.28C349.122,167.686 351.418,167.047 353.57,167.61C355.672,168.21 357.689,169.077 359.57,170.19C362.195,171.515 364.945,172.577 367.78,173.36C370.16,174.01 372.92,175.57 373.73,172.36C375,167.64 373.81,160.52 371.08,156.75Z" style="fill:rgb(134,90,97);fill-rule:nonzero;"/>
    </g>
    <g transform="matrix(1,0,0,1,-43.2,-23.86)">
        <path d="M331.35,249.08L330.95,264.43C336.761,266.009 342.758,266.806 348.78,266.8C349.78,266.8 350.83,266.8 351.85,266.73C357.191,266.5 362.485,265.634 367.62,264.15L367.72,264.15C368.67,263.87 369.61,263.58 370.54,263.26L370.64,263.26L371.49,262.96C374.727,261.82 377.87,260.429 380.89,258.8L381.08,258.7C381.41,258.52 381.74,258.34 382.08,258.15L380.53,237.46L383,223.27L369.48,214.06C368.721,215.156 367.871,216.186 366.94,217.14C365.605,218.534 364.043,219.691 362.32,220.56C352.62,225.34 341.58,217.74 336.09,213.04L334.84,211.93C333.42,210.64 332.61,209.76 332.61,209.76L325.85,220.2L331.35,249.08Z" style="fill-opacity:0.1;fill-rule:nonzero;"/>
    </g>
    <g transform="matrix(1,0,0,1,-43.2,-23.86)">
        <path d="M331.35,250.08L330.95,265.43C336.761,267.009 342.758,267.806 348.78,267.8C349.78,267.8 350.83,267.8 351.85,267.73C357.191,267.5 362.485,266.634 367.62,265.15L367.72,265.15C368.67,264.87 369.61,264.58 370.54,264.26L370.64,264.26L371.49,263.96C374.727,262.82 377.87,261.429 380.89,259.8L381.08,259.7C381.41,259.52 381.74,259.34 382.08,259.15L380.53,238.46L383,224.27L369.48,215.06C368.721,216.156 367.871,217.186 366.94,218.14C365.605,219.534 364.043,220.691 362.32,221.56C352.62,226.34 341.58,218.74 336.09,214.04L334.84,212.93C333.42,211.64 332.61,210.76 332.61,210.76L325.85,221.2L331.35,250.08Z" style="fill:rgb(83,82,107);fill-rule:nonzero;"/>
    </g>
    <g transform="matrix(1,0,0,1,-43.2,-23.86)">
        <path d="M294.36,240.58C295.25,241.77 296.18,242.92 297.15,244.05C297.67,244.66 298.21,245.26 298.76,245.85C299.033,246.157 299.313,246.457 299.6,246.75C301.855,249.122 304.282,251.324 306.86,253.34L307.04,253.47C311.024,256.593 315.352,259.25 319.94,261.39C322.295,262.496 324.712,263.465 327.18,264.29L328.09,264.58C328.65,264.77 329.23,264.94 329.8,265.1L330.03,265.17C330.32,265.25 330.61,265.34 330.91,265.41C336.721,266.989 342.718,267.786 348.74,267.78C349.74,267.78 350.79,267.78 351.81,267.71C352.59,254.95 352.81,244.71 351.59,242.08C350.858,240.557 350.033,239.081 349.12,237.66C344.18,229.72 335.12,217.78 335.61,216.27C335.801,215.531 335.938,214.779 336.02,214.02C336.55,210.08 337.08,202.87 337.08,202.87C336.86,202.87 332.38,202.98 325.79,211.96C319.03,221.18 304.28,222.41 304.28,222.41C304.28,222.41 299.77,220.41 294.36,240.58Z" style="fill:rgb(85,83,136);fill-rule:nonzero;"/>
    </g>
    <g transform="matrix(1,0,0,1,-43.2,-23.86)">
        <path d="M368.83,251.31C368.83,251.31 369.57,257.2 370.54,264.24L370.64,264.24L371.49,263.94C374.727,262.8 377.87,261.409 380.89,259.78L381.08,259.68C381.41,259.5 381.74,259.32 382.08,259.13C386.513,256.642 390.652,253.663 394.42,250.25L394.75,249.94C396.816,248.07 398.757,246.065 400.56,243.94L400.77,243.69C397.2,231.3 389.77,227.4 389.77,227.4C389.77,227.4 383.01,224.32 381.16,220.02C379.31,215.72 362.98,206.63 362.98,206.63L362.98,206.7C362.98,207.47 362.72,214.52 362.33,221.61C362.08,226.22 361.77,230.85 361.41,233.79C361.332,234.745 361.158,235.69 360.89,236.61C359.62,239.64 368.83,251.31 368.83,251.31Z" style="fill:rgb(85,83,136);fill-rule:nonzero;"/>
    </g>
    <defs>
        <linearGradient id="_Linear1" x1="0" y1="0" x2="1" y2="0" gradientUnits="userSpaceOnUse" gradientTransform="matrix(7.39687e-15,-120.8,120.8,7.39687e-15,347.55,267.8)"><stop offset="0" style="stop-color:rgb(128,128,128);stop-opacity:0.25"/><stop offset="0.54" style="stop-color:rgb(128,128,128);stop-opacity:0.12"/><stop offset="1" style="stop-color:rgb(128,128,128);stop-opacity:0.1"/></linearGradient>
    </defs>
</svg>
