<?xml version="1.0" encoding="UTF-8" standalone="no"?>
<!DOCTYPE svg PUBLIC "-//W3C//DTD SVG 1.1//EN" "http://www.w3.org/Graphics/SVG/1.1/DTD/svg11.dtd">
<svg width="100%" height="100%" viewBox="0 0 945 653" version="1.1" xmlns="http://www.w3.org/2000/svg" xmlns:xlink="http://www.w3.org/1999/xlink" xml:space="preserve" xmlns:serif="http://www.serif.com/" style="fill-rule:evenodd;clip-rule:evenodd;stroke-miterlimit:10;">
    <path d="M722.297,119.274L599.704,203.07L779.574,203.07L722.297,119.274Z" style="fill:rgb(242,242,242);fill-rule:nonzero;"/>
    <path d="M789.145,212.022L588.498,212.022L527.329,253.833L817.724,253.833L789.145,212.022Z" style="fill:rgb(242,242,242);fill-rule:nonzero;"/>
    <path d="M520.047,262.08L326.168,394.601L464.272,596.646L866,322.053L825.007,262.08L520.047,262.08Z" style="fill:rgb(242,242,242);fill-rule:nonzero;"/>
    <ellipse cx="540" cy="632.757" rx="405" ry="20" style="fill:rgb(242,242,242);"/>
    <ellipse cx="116.5" cy="595.757" rx="116.5" ry="15" style="fill:rgb(242,242,242);"/>
    <ellipse cx="320.186" cy="345.709" rx="13.794" ry="7.986" style="fill:rgb(63,61,86);"/>
    <path d="M682.636,404.151L372.638,404.151L380.261,376.709L386.853,352.969L398.048,312.676L657.952,312.676L668.827,352.969L676.269,380.556L682.636,404.151Z" style="fill:rgb(63,61,86);fill-rule:nonzero;"/>
    <path d="M676.269,380.556L380.261,380.556L380.261,376.709L386.853,352.969L668.827,352.969L676.269,380.556Z" style="fill-opacity:0.1;fill-rule:nonzero;"/>
    <rect x="300.04" y="343.168" width="40.292" height="31.218" style="fill:rgb(209,0,33);"/>
    <rect x="271" y="358.414" width="514" height="274.424" style="fill:rgb(63,61,86);"/>
    <rect x="271" y="461.504" width="514" height="68.243" style="fill:rgb(209,0,33);"/>
    <circle cx="528" cy="495.626" r="127.411" style="fill:rgb(47,46,65);"/>
    <circle cx="528" cy="495.626" r="118.336" style="fill:rgb(63,61,86);"/>
    <circle cx="528" cy="495.626" r="90.023" style="fill:rgb(47,46,65);"/>
    <circle cx="705.867" cy="377.289" r="8.712" style="fill:rgb(209,0,33);fill-opacity:0.2;"/>
    <circle cx="732.003" cy="377.289" r="8.712" style="fill:rgb(209,0,33);fill-opacity:0.5;"/>
    <circle cx="758.138" cy="377.289" r="8.712" style="fill:rgb(209,0,33);"/>
    <rect x="497.145" y="319.21" width="60.983" height="27.588" style="fill:rgb(47,46,65);"/>
    <g transform="matrix(1,0,0,1,-127.5,-123.622)">
        <path d="M180.299,360.655L185.637,355.316C185.637,355.316 199.28,331.59 185.637,333.369C171.995,335.149 171.995,347.012 171.995,347.012L171.995,360.655L180.299,360.655Z" style="fill:rgb(159,97,106);fill-rule:nonzero;"/>
    </g>
    <g transform="matrix(1,0,0,1,-127.5,-123.622)">
        <path d="M392.059,418.192L397.398,416.412C397.398,416.412 411.634,395.058 413.413,404.549C415.193,414.04 406.295,427.089 406.295,427.089L392.059,427.089L392.059,418.192Z" style="fill:rgb(159,97,106);fill-rule:nonzero;"/>
    </g>
    <g transform="matrix(0.969973,0.243213,-0.243213,0.969973,-53.0714,-194.982)">
        <rect x="206.695" y="149.191" width="239.046" height="233.114" style="fill:rgb(63,61,86);"/>
    </g>
    <g transform="matrix(0.969973,0.243213,-0.243213,0.969973,-60.09,-197.311)">
        <rect x="229.494" y="164.228" width="205.295" height="143.861" style="fill:rgb(209,0,33);fill-opacity:0.2;"/>
    </g>
    <ellipse cx="137.187" cy="214.493" rx="23.865" ry="19.871" style="fill:rgb(47,46,65);"/>
    <g transform="matrix(1,0,0,1,-127.5,-123.622)">
        <path d="M227.752,498.862C227.752,498.862 218.855,523.182 217.075,584.872C215.296,646.561 213.516,685.117 221.227,690.455C228.939,695.794 240.209,694.607 240.802,693.421C241.395,692.235 244.361,615.123 244.361,615.123L259.783,557.586L276.985,596.735L276.985,664.949C276.985,664.949 290.035,676.812 295.373,665.542C300.712,654.272 304.271,596.735 304.271,596.735C304.271,596.735 310.796,498.863 299.525,486.999C288.255,475.136 227.752,498.862 227.752,498.862Z" style="fill:rgb(47,46,65);fill-rule:nonzero;"/>
    </g>
    <g transform="matrix(1,0,0,1,-127.5,-123.622)">
        <path d="M229.532,690.455C229.532,690.455 223.007,684.523 217.668,692.235C212.33,699.946 194.535,716.554 198.687,719.52C202.839,722.486 224.193,723.672 226.566,720.707C226.566,720.707 243.768,712.995 243.768,711.216C243.768,709.436 241.395,689.862 239.022,690.455C236.65,691.048 230.125,695.794 229.532,690.455Z" style="fill:rgb(47,46,65);fill-rule:nonzero;"/>
    </g>
    <g transform="matrix(1,0,0,1,-127.5,-123.622)">
        <path d="M285.289,661.39L296.785,661.39C296.785,661.39 293.594,669.694 296.56,669.694C299.525,669.694 326.811,692.235 316.134,694.607C305.457,696.98 275.206,686.303 274.019,682.744C272.833,679.185 278.171,663.17 278.171,663.17L285.289,666.729L285.289,661.39Z" style="fill:rgb(47,46,65);fill-rule:nonzero;"/>
    </g>
    <g transform="matrix(1,0,0,1,-127.5,-123.622)">
        <path d="M252.072,353.537C252.072,353.537 250.886,373.704 244.954,375.484C239.022,377.263 263.935,395.652 263.935,395.652L281.137,373.111C281.137,373.111 274.612,361.841 276.985,353.537C279.358,345.233 252.072,353.537 252.072,353.537Z" style="fill:rgb(159,97,106);fill-rule:nonzero;"/>
    </g>
    <g transform="matrix(1,0,0,1,-127.5,-123.622)">
        <path d="M252.072,353.537C252.072,353.537 250.886,373.704 244.954,375.484C239.022,377.263 263.935,395.652 263.935,395.652L281.137,373.111C281.137,373.111 274.612,361.841 276.985,353.537C279.358,345.233 252.072,353.537 252.072,353.537Z" style="fill-opacity:0.1;fill-rule:nonzero;"/>
    </g>
    <g transform="matrix(1,0,0,1,-127.5,-123.622)">
        <path d="M262.749,376.67C262.749,376.67 241.988,368.959 239.022,370.739C236.057,372.518 208.178,384.975 207.585,387.347C206.991,389.72 211.144,424.124 211.144,424.124C211.144,424.124 218.262,427.089 218.855,439.546C219.448,452.002 235.463,471.577 230.125,484.627C224.786,497.676 219.448,502.422 229.532,504.201C239.616,505.98 285.289,503.015 287.662,498.862C290.035,494.71 303.678,488.779 307.83,489.965C311.982,491.151 305.457,428.276 305.457,428.276L309.016,419.378L320.879,386.754C320.879,386.754 303.084,366.586 285.883,368.366C285.883,368.366 266.901,370.739 262.749,376.67Z" style="fill:rgb(209,0,33);fill-rule:nonzero;"/>
    </g>
    <g transform="matrix(1,0,0,1,-127.5,-123.622)">
        <path d="M216.482,389.127L207.585,387.347C207.585,387.347 198.687,393.279 195.721,393.279C192.756,393.279 192.755,395.652 192.755,395.652C192.755,395.652 181.485,378.45 183.858,358.875C183.858,358.875 170.215,352.351 169.622,357.096C169.029,361.841 164.284,415.819 174.367,419.378C184.451,422.937 218.855,423.53 218.855,423.53L216.482,389.127Z" style="fill:rgb(209,0,33);fill-rule:nonzero;"/>
    </g>
    <g transform="matrix(1,0,0,1,-127.5,-123.622)">
        <path d="M312.575,385.568L320.879,385.568L342.826,407.515C342.826,407.515 348.165,406.329 349.944,409.888C351.724,413.447 363.587,412.853 363.587,412.853L395.025,415.819C395.025,415.819 399.177,429.462 396.211,431.835C393.246,434.207 341.047,434.801 341.047,434.801C341.047,434.801 336.302,432.428 333.336,434.801C330.37,437.173 309.016,422.344 306.643,418.192C304.271,414.04 312.575,385.568 312.575,385.568Z" style="fill:rgb(209,0,33);fill-rule:nonzero;"/>
    </g>
    <circle cx="138.215" cy="217.459" r="21.947" style="fill:rgb(159,97,106);"/>
    <g transform="matrix(1,0,0,1,-127.5,-123.622)">
        <path d="M252.107,328.316C252.107,328.316 248.354,318.556 253.797,315.365L255.298,319.682C255.298,319.682 269,311.423 272.566,313.3L269.187,317.805C269.187,317.805 285.141,317.805 286.267,323.999L280.636,324.186C280.636,324.186 286.643,328.128 286.83,334.509L274.818,335.26L280.636,338.639C280.636,338.639 258.864,341.642 253.609,333.008L252.107,328.316Z" style="fill:rgb(47,46,65);fill-rule:nonzero;"/>
    </g>
    <g transform="matrix(1,0,0,1,-127.5,-123.622)">
        <path d="M244.064,332.479C244.064,332.479 250.425,338.733 258.656,335.646C266.888,332.559 258.656,321.241 258.656,321.241L253.169,318.497L244.064,332.479Z" style="fill:rgb(47,46,65);fill-rule:nonzero;"/>
    </g>
    <g transform="matrix(0.885621,-0.464408,0.464408,0.885621,-210.54,69.9716)">
        <rect x="340.5" y="254.378" width="22" height="22" style="fill:none;stroke:rgb(242,242,242);stroke-width:2px;"/>
    </g>
    <g transform="matrix(0.866025,0.5,-0.5,0.866025,35.3768,-236.729)">
        <rect x="281.5" y="236.378" width="22" height="22" style="fill:rgb(209,0,33);"/>
    </g>
    <circle cx="558" cy="286.757" r="11" style="fill:none;stroke:rgb(63,61,86);stroke-width:2px;"/>
    <circle cx="524" cy="244.757" r="11" style="fill:none;stroke:rgb(63,61,86);stroke-width:2px;"/>
    <circle cx="580" cy="212.757" r="11" style="fill:none;stroke:rgb(63,61,86);stroke-width:2px;"/>
    <circle cx="208" cy="91.757" r="11" style="fill:none;stroke:rgb(242,242,242);stroke-width:2px;"/>
</svg>
